999
dxfrw 0.6.3
  0
SECTION
  2
HEADER
  9
$ACADVER
  1
AC1021
  9
$DWGCODEPAGE
  3
ANSI_1252
  9
$INSBASE
 10
0
 20
0
 30
0
  9
$EXTMIN
 10
60.7706779092852
 20
84.13800000000215
 30
0
  9
$EXTMAX
 10
130.7706779092866
 20
175.5975447623841
 30
0
  9
$LIMMIN
 10
0
 20
0
  9
$LIMMAX
 10
420
 20
297
  9
$ORTHOMODE
 70
    0
  9
$REGENMODE
 70
    1
  9
$FILLMODE
 70
    1
  9
$QTEXTMODE
 70
    0
  9
$MIRRTEXT
 70
    0
  9
$LTSCALE
 40
1
  9
$ATTMODE
 70
    0
  9
$TEXTSIZE
 40
2.5
  9
$TRACEWID
 40
15.68
  9
$TEXTSTYLE
  7
STANDARD
  9
$CLAYER
  8
PCB
  9
$CELTYPE
  6
BYLAYER
  9
$CECOLOR
 62
  256
  9
$CELTSCALE
 40
1
  9
$DISPSILH
 70
    0
  9
$DIMSCALE
 40
2.5
  9
$DIMASZ
 40
2.5
  9
$DIMEXO
 40
0.625
  9
$DIMDLI
 40
3.75
  9
$DIMRND
 40
0
  9
$DIMDLE
 40
0
  9
$DIMEXE
 40
1.25
  9
$DIMTP
 40
0
  9
$DIMTM
 40
0
  9
$DIMTXT
 40
2.5
  9
$DIMCEN
 40
2.5
  9
$DIMTSZ
 40
0
  9
$DIMTOL
 70
    0
  9
$DIMLIM
 70
    0
  9
$DIMTIH
 70
    0
  9
$DIMTOH
 70
    0
  9
$DIMSE1
 70
    0
  9
$DIMSE2
 70
    0
  9
$DIMTAD
 70
    1
  9
$DIMZIN
 70
    8
  9
$DIMBLK
  1

  9
$DIMASO
 70
    1
  9
$DIMSHO
 70
    1
  9
$DIMPOST
  1

  9
$DIMAPOST
  1

  9
$DIMALT
 70
    0
  9
$DIMALTD
 70
    3
  9
$DIMALTF
 40
0.03937
  9
$DIMLFAC
 40
1
  9
$DIMTOFL
 70
    1
  9
$DIMTVP
 40
0
  9
$DIMTIX
 70
    0
  9
$DIMSOXD
 70
    0
  9
$DIMSAH
 70
    0
  9
$DIMBLK1
  1

  9
$DIMBLK2
  1

  9
$DIMSTYLE
  2
STANDARD
  9
$DIMCLRD
 70
    0
  9
$DIMCLRE
 70
    0
  9
$DIMCLRT
 70
    0
  9
$DIMTFAC
 40
1
  9
$DIMGAP
 40
0.625
  9
$DIMJUST
 70
    0
  9
$DIMSD1
 70
    0
  9
$DIMSD2
 70
    0
  9
$DIMTOLJ
 70
    0
  9
$DIMTZIN
 70
    8
  9
$DIMALTZ
 70
    0
  9
$DIMALTTZ
 70
    0
  9
$DIMUPT
 70
    0
  9
$DIMDEC
 70
    2
  9
$DIMTDEC
 70
    2
  9
$DIMALTU
 70
    2
  9
$DIMALTTD
 70
    3
  9
$DIMTXSTY
  7
STANDARD
  9
$DIMAUNIT
 70
    0
  9
$DIMADEC
 70
    0
  9
$DIMALTRND
 40
0
  9
$DIMAZIN
 70
    0
  9
$DIMDSEP
 70
   44
  9
$DIMATFIT
 70
    3
  9
$DIMFRAC
 70
    0
  9
$DIMLDRBLK
  1
STANDARD
  9
$DIMLUNIT
 70
    2
  9
$DIMLWD
 70
   -2
  9
$DIMLWE
 70
   -2
  9
$DIMTMOVE
 70
    0
  9
$DIMFXL
 40
1
  9
$DIMFXLON
 70
    0
  9
$DIMJOGANG
 40
0.7854
  9
$DIMTFILL
 70
    0
  9
$DIMTFILLCLR
 70
    0
  9
$DIMARCSYM
 70
    0
  9
$DIMLTYPE
  6

  9
$DIMLTEX1
  6

  9
$DIMLTEX2
  6

  9
$LUNITS
 70
    2
  9
$LUPREC
 70
    4
  9
$SKETCHINC
 40
1
  9
$FILLETRAD
 40
0
  9
$AUNITS
 70
    0
  9
$AUPREC
 70
    2
  9
$MENU
  1
.
  9
$ELEVATION
 40
0
  9
$PELEVATION
 40
0
  9
$THICKNESS
 40
0
  9
$LIMCHECK
 70
    0
  9
$CHAMFERA
 40
0
  9
$CHAMFERB
 40
0
  9
$CHAMFERC
 40
0
  9
$CHAMFERD
 40
0
  9
$SKPOLY
 70
    0
  9
$USRTIMER
 70
    1
  9
$ANGBASE
 50
0
  9
$ANGDIR
 70
    0
  9
$PDMODE
 70
   34
  9
$PDSIZE
 40
0
  9
$PLINEWID
 40
0
  9
$SPLFRAME
 70
    0
  9
$SPLINETYPE
 70
    2
  9
$SPLINESEGS
 70
    8
  9
$HANDSEED
  5
20000
  9
$SURFTAB1
 70
    6
  9
$SURFTAB2
 70
    6
  9
$SURFTYPE
 70
    6
  9
$SURFU
 70
    6
  9
$SURFV
 70
    6
  9
$UCSBASE
  2

  9
$UCSNAME
  2

  9
$UCSORG
 10
0
 20
0
 30
0
  9
$UCSXDIR
 10
1
 20
0
 30
0
  9
$UCSYDIR
 10
0
 20
1
 30
0
  9
$UCSORTHOREF
  2

  9
$UCSORTHOVIEW
 70
    0
  9
$UCSORGTOP
 10
0
 20
0
 30
0
  9
$UCSORGBOTTOM
 10
0
 20
0
 30
0
  9
$UCSORGLEFT
 10
0
 20
0
 30
0
  9
$UCSORGRIGHT
 10
0
 20
0
 30
0
  9
$UCSORGFRONT
 10
0
 20
0
 30
0
  9
$UCSORGBACK
 10
0
 20
0
 30
0
  9
$PUCSBASE
  2

  9
$PUCSNAME
  2

  9
$PUCSORG
 10
0
 20
0
 30
0
  9
$PUCSXDIR
 10
1
 20
0
 30
0
  9
$PUCSYDIR
 10
0
 20
1
 30
0
  9
$PUCSORTHOREF
  2

  9
$PUCSORTHOVIEW
 70
    0
  9
$PUCSORGTOP
 10
0
 20
0
 30
0
  9
$PUCSORGBOTTOM
 10
0
 20
0
 30
0
  9
$PUCSORGLEFT
 10
0
 20
0
 30
0
  9
$PUCSORGRIGHT
 10
0
 20
0
 30
0
  9
$PUCSORGFRONT
 10
0
 20
0
 30
0
  9
$PUCSORGBACK
 10
0
 20
0
 30
0
  9
$USERI1
 70
    0
  9
$USERI2
 70
    0
  9
$USERI3
 70
    0
  9
$USERI4
 70
    0
  9
$USERI5
 70
    0
  9
$USERR1
 40
0
  9
$USERR2
 40
0
  9
$USERR3
 40
0
  9
$USERR4
 40
0
  9
$USERR5
 40
0
  9
$WORLDVIEW
 70
    1
  9
$SHADEDGE
 70
    3
  9
$SHADEDIF
 70
   70
  9
$TILEMODE
 70
    1
  9
$MAXACTVP
 70
   64
  9
$PINSBASE
 10
0
 20
0
 30
0
  9
$PLIMCHECK
 70
    0
  9
$PEXTMIN
 10
0
 20
0
 30
0
  9
$PEXTMAX
 10
0
 20
0
 30
0
  9
$GRIDMODE
 70
    1
  9
$SNAPSTYLE
 70
    0
  9
$PLIMMIN
 10
0
 20
0
  9
$PLIMMAX
 10
210
 20
297
  9
$UNITMODE
 70
    0
  9
$VISRETAIN
 70
    1
  9
$PLINEGEN
 70
    0
  9
$PSLTSCALE
 70
    1
  9
$TREEDEPTH
 70
 3020
  9
$CMLSTYLE
  2
Standard
  9
$CMLJUST
 70
    0
  9
$CMLSCALE
 40
20
  9
$PROXYGRAPHICS
 70
    1
  9
$MEASUREMENT
 70
    1
  9
$CELWEIGHT
370
   -1
  9
$ENDCAPS
280
    0
  9
$JOINSTYLE
280
    0
  9
$LWDISPLAY
290
    0
  9
$INSUNITS
 70
    4
  9
$HYPERLINKBASE
  1

  9
$STYLESHEET
  1

  9
$XEDIT
290
    1
  9
$CEPSNTYPE
380
    0
  9
$PSTYLEMODE
290
    1
  9
$EXTNAMES
290
    1
  9
$PSVPSCALE
 40
1
  9
$OLESTARTUP
290
    0
  9
$SORTENTS
280
  127
  9
$INDEXCTL
280
    0
  9
$HIDETEXT
280
    1
  9
$XCLIPFRAME
290
    0
  9
$HALOGAP
280
    0
  9
$OBSCOLOR
 70
  257
  9
$OBSLTYPE
280
    0
  9
$INTERSECTIONDISPLAY
280
    0
  9
$INTERSECTIONCOLOR
 70
  257
  9
$DIMASSOC
280
    1
  9
$PROJECTNAME
  1

  9
$CAMERADISPLAY
290
    0
  9
$LENSLENGTH
 40
50
  9
$CAMERAHEIGHT
 40
0
  9
$STEPSPERSEC
 40
2
  9
$STEPSIZE
 40
50
  9
$3DDWFPREC
 40
2
  9
$PSOLWIDTH
 40
5
  9
$PSOLHEIGHT
 40
80
  9
$LOFTANG1
 40
1.570796326794897
  9
$LOFTANG2
 40
1.570796326794897
  9
$LOFTMAG1
 40
0
  9
$LOFTMAG2
 40
0
  9
$LOFTPARAM
 70
    7
  9
$LOFTNORMALS
280
    1
  9
$LATITUDE
 40
1
  9
$LONGITUDE
 40
1
  9
$NORTHDIRECTION
 40
0
  9
$TIMEZONE
 70
-8000
  9
$LIGHTGLYPHDISPLAY
280
    1
  9
$TILEMODELIGHTSYNCH
280
    1
  9
$SOLIDHIST
280
    1
  9
$SHOWHIST
280
    1
  9
$DWFFRAME
280
    2
  9
$DGNFRAME
280
    0
  9
$REALWORLDSCALE
290
    1
  9
$INTERFERECOLOR
 62
    1
  9
$CSHADOW
280
    0
  9
$SHADOWPLANELOCATION
 40
0
  0
ENDSEC
  0
SECTION
  2
CLASSES
  0
ENDSEC
  0
SECTION
  2
TABLES
  0
TABLE
  2
VPORT
  5
8
330
0
100
AcDbSymbolTable
 70
    1
  0
VPORT
  5
31
330
2
100
AcDbSymbolTableRecord
100
AcDbViewportTableRecord
  2
*ACTIVE
 70
    0
 10
0
 20
0
 11
1
 21
1
 12
155.875000000005
 22
100.0000000000032
 13
0
 23
0
 14
10
 24
10
 15
10
 25
10
 16
0
 26
0
 36
1
 17
0
 27
0
 37
0
 40
209.7500000000067
 41
1.907032181168057
 42
50
 43
0
 44
0
 50
0
 51
0
 71
    0
 72
  100
 73
    1
 74
    3
 75
    0
 76
    1
 77
    0
 78
    0
281
    0
 65
    1
110
0
120
0
130
0
111
1
121
0
131
0
112
0
122
1
132
0
 79
    0
146
0
348
10020
 60
    7
 61
    5
292
1
282
    1
141
0
142
0
 63
  250
421
3358443
  0
ENDTAB
  0
TABLE
  2
LTYPE
  5
5
330
0
100
AcDbSymbolTable
 70
    4
  0
LTYPE
  5
14
330
5
100
AcDbSymbolTableRecord
100
AcDbLinetypeTableRecord
  2
ByBlock
 70
    0
  3

 72
   65
 73
    0
 40
0
  0
LTYPE
  5
15
330
5
100
AcDbSymbolTableRecord
100
AcDbLinetypeTableRecord
  2
ByLayer
 70
    0
  3

 72
   65
 73
    0
 40
0
  0
LTYPE
  5
16
330
5
100
AcDbSymbolTableRecord
100
AcDbLinetypeTableRecord
  2
Continuous
 70
    0
  3
Solid line
 72
   65
 73
    0
 40
0
  0
LTYPE
  5
32
330
5
100
AcDbSymbolTableRecord
100
AcDbLinetypeTableRecord
  2
DOT
 70
    0
  3
Dot . . . . . . . . . . . . . . . . . . . . . .
 72
   65
 73
    2
 40
6.35
 49
0
 74
    0
 49
-6.35
 74
    0
  0
LTYPE
  5
33
330
5
100
AcDbSymbolTableRecord
100
AcDbLinetypeTableRecord
  2
DOTTINY
 70
    0
  3
Dot (.15x) .....................................
 72
   65
 73
    2
 40
0.9525
 49
0
 74
    0
 49
-0.9525
 74
    0
  0
LTYPE
  5
34
330
5
100
AcDbSymbolTableRecord
100
AcDbLinetypeTableRecord
  2
DOT2
 70
    0
  3
Dot (.5x) .....................................
 72
   65
 73
    2
 40
3.175
 49
0
 74
    0
 49
-3.175
 74
    0
  0
LTYPE
  5
35
330
5
100
AcDbSymbolTableRecord
100
AcDbLinetypeTableRecord
  2
DOTX2
 70
    0
  3
Dot (2x) .  .  .  .  .  .  .  .  .  .  .  .  .
 72
   65
 73
    2
 40
12.7
 49
0
 74
    0
 49
-12.7
 74
    0
  0
LTYPE
  5
36
330
5
100
AcDbSymbolTableRecord
100
AcDbLinetypeTableRecord
  2
DASHED
 70
    0
  3
Dashed _ _ _ _ _ _ _ _ _ _ _ _ _ _ _ _ _
 72
   65
 73
    2
 40
19.05
 49
12.7
 74
    0
 49
-6.35
 74
    0
  0
LTYPE
  5
37
330
5
100
AcDbSymbolTableRecord
100
AcDbLinetypeTableRecord
  2
DASHEDTINY
 70
    0
  3
Dashed (.15x) _ _ _ _ _ _ _ _ _ _ _ _ _ _ _ _ _
 72
   65
 73
    2
 40
2.8575
 49
1.905
 74
    0
 49
-0.9525
 74
    0
  0
LTYPE
  5
38
330
5
100
AcDbSymbolTableRecord
100
AcDbLinetypeTableRecord
  2
DASHED2
 70
    0
  3
Dashed (.5x) _ _ _ _ _ _ _ _ _ _ _ _ _ _ _ _ _
 72
   65
 73
    2
 40
9.524999999999999
 49
6.35
 74
    0
 49
-3.175
 74
    0
  0
LTYPE
  5
39
330
5
100
AcDbSymbolTableRecord
100
AcDbLinetypeTableRecord
  2
DASHEDX2
 70
    0
  3
Dashed (2x) ____  ____  ____  ____  ____  ___
 72
   65
 73
    2
 40
38.09999999999999
 49
25.4
 74
    0
 49
-12.7
 74
    0
  0
LTYPE
  5
3A
330
5
100
AcDbSymbolTableRecord
100
AcDbLinetypeTableRecord
  2
DASHDOT
 70
    0
  3
Dash dot __ . __ . __ . __ . __ . __ . __ . __
 72
   65
 73
    4
 40
25.4
 49
12.7
 74
    0
 49
-6.35
 74
    0
 49
0
 74
    0
 49
-6.35
 74
    0
  0
LTYPE
  5
3B
330
5
100
AcDbSymbolTableRecord
100
AcDbLinetypeTableRecord
  2
DASHDOTTINY
 70
    0
  3
Dash dot (.15x) _._._._._._._._._._._._._._._.
 72
   65
 73
    4
 40
3.81
 49
1.905
 74
    0
 49
-0.9525
 74
    0
 49
0
 74
    0
 49
-0.9525
 74
    0
  0
LTYPE
  5
3C
330
5
100
AcDbSymbolTableRecord
100
AcDbLinetypeTableRecord
  2
DASHDOT2
 70
    0
  3
Dash dot (.5x) _._._._._._._._._._._._._._._.
 72
   65
 73
    4
 40
12.7
 49
6.35
 74
    0
 49
-3.175
 74
    0
 49
0
 74
    0
 49
-3.175
 74
    0
  0
LTYPE
  5
3D
330
5
100
AcDbSymbolTableRecord
100
AcDbLinetypeTableRecord
  2
DASHDOTX2
 70
    0
  3
Dash dot (2x) ____  .  ____  .  ____  .  ___
 72
   65
 73
    4
 40
50.8
 49
25.4
 74
    0
 49
-12.7
 74
    0
 49
0
 74
    0
 49
-12.7
 74
    0
  0
LTYPE
  5
3E
330
5
100
AcDbSymbolTableRecord
100
AcDbLinetypeTableRecord
  2
DIVIDE
 70
    0
  3
Divide ____ . . ____ . . ____ . . ____ . . ____
 72
   65
 73
    6
 40
31.75
 49
12.7
 74
    0
 49
-6.35
 74
    0
 49
0
 74
    0
 49
-6.35
 74
    0
 49
0
 74
    0
 49
-6.35
 74
    0
  0
LTYPE
  5
3F
330
5
100
AcDbSymbolTableRecord
100
AcDbLinetypeTableRecord
  2
DIVIDETINY
 70
    0
  3
Divide (.15x) __..__..__..__..__..__..__..__.._
 72
   65
 73
    6
 40
4.7625
 49
1.905
 74
    0
 49
-0.9525
 74
    0
 49
0
 74
    0
 49
-0.9525
 74
    0
 49
0
 74
    0
 49
-0.9525
 74
    0
  0
LTYPE
  5
40
330
5
100
AcDbSymbolTableRecord
100
AcDbLinetypeTableRecord
  2
DIVIDE2
 70
    0
  3
Divide (.5x) __..__..__..__..__..__..__..__.._
 72
   65
 73
    6
 40
15.875
 49
6.35
 74
    0
 49
-3.175
 74
    0
 49
0
 74
    0
 49
-3.175
 74
    0
 49
0
 74
    0
 49
-3.175
 74
    0
  0
LTYPE
  5
41
330
5
100
AcDbSymbolTableRecord
100
AcDbLinetypeTableRecord
  2
DIVIDEX2
 70
    0
  3
Divide (2x) ________  .  .  ________  .  .  _
 72
   65
 73
    6
 40
63.5
 49
25.4
 74
    0
 49
-12.7
 74
    0
 49
0
 74
    0
 49
-12.7
 74
    0
 49
0
 74
    0
 49
-12.7
 74
    0
  0
LTYPE
  5
42
330
5
100
AcDbSymbolTableRecord
100
AcDbLinetypeTableRecord
  2
BORDER
 70
    0
  3
Border __ __ . __ __ . __ __ . __ __ . __ __ .
 72
   65
 73
    6
 40
44.45
 49
12.7
 74
    0
 49
-6.35
 74
    0
 49
12.7
 74
    0
 49
-6.35
 74
    0
 49
0
 74
    0
 49
-6.35
 74
    0
  0
LTYPE
  5
43
330
5
100
AcDbSymbolTableRecord
100
AcDbLinetypeTableRecord
  2
BORDERTINY
 70
    0
  3
Border (.15x) __.__.__.__.__.__.__.__.__.__.__.
 72
   65
 73
    6
 40
6.6675
 49
1.905
 74
    0
 49
-0.9525
 74
    0
 49
1.905
 74
    0
 49
-0.9525
 74
    0
 49
0
 74
    0
 49
-0.9525
 74
    0
  0
LTYPE
  5
44
330
5
100
AcDbSymbolTableRecord
100
AcDbLinetypeTableRecord
  2
BORDER2
 70
    0
  3
Border (.5x) __.__.__.__.__.__.__.__.__.__.__.
 72
   65
 73
    6
 40
22.225
 49
6.35
 74
    0
 49
-3.175
 74
    0
 49
6.35
 74
    0
 49
-3.175
 74
    0
 49
0
 74
    0
 49
-3.175
 74
    0
  0
LTYPE
  5
45
330
5
100
AcDbSymbolTableRecord
100
AcDbLinetypeTableRecord
  2
BORDERX2
 70
    0
  3
Border (2x) ____  ____  .  ____  ____  .  ___
 72
   65
 73
    6
 40
88.89999999999999
 49
25.4
 74
    0
 49
-12.7
 74
    0
 49
25.4
 74
    0
 49
-12.7
 74
    0
 49
0
 74
    0
 49
-12.7
 74
    0
  0
LTYPE
  5
46
330
5
100
AcDbSymbolTableRecord
100
AcDbLinetypeTableRecord
  2
CENTER
 70
    0
  3
Center ____ _ ____ _ ____ _ ____ _ ____ _ ____
 72
   65
 73
    4
 40
50.8
 49
31.75
 74
    0
 49
-6.35
 74
    0
 49
6.35
 74
    0
 49
-6.35
 74
    0
  0
LTYPE
  5
47
330
5
100
AcDbSymbolTableRecord
100
AcDbLinetypeTableRecord
  2
CENTERTINY
 70
    0
  3
Center (.15x) ___ _ ___ _ ___ _ ___ _ ___ _ ___
 72
   65
 73
    4
 40
7.62
 49
4.7625
 74
    0
 49
-0.9525
 74
    0
 49
0.9525
 74
    0
 49
-0.9525
 74
    0
  0
LTYPE
  5
48
330
5
100
AcDbSymbolTableRecord
100
AcDbLinetypeTableRecord
  2
CENTER2
 70
    0
  3
Center (.5x) ___ _ ___ _ ___ _ ___ _ ___ _ ___
 72
   65
 73
    4
 40
28.575
 49
19.05
 74
    0
 49
-3.175
 74
    0
 49
3.175
 74
    0
 49
-3.175
 74
    0
  0
LTYPE
  5
49
330
5
100
AcDbSymbolTableRecord
100
AcDbLinetypeTableRecord
  2
CENTERX2
 70
    0
  3
Center (2x) ________  __  ________  __  _____
 72
   65
 73
    4
 40
101.6
 49
63.5
 74
    0
 49
-12.7
 74
    0
 49
12.7
 74
    0
 49
-12.7
 74
    0
  0
ENDTAB
  0
TABLE
  2
LAYER
  5
2
330
0
100
AcDbSymbolTable
 70
    1
  0
LAYER
  5
10
330
2
100
AcDbSymbolTableRecord
100
AcDbLayerTableRecord
  2
0
 70
    1
 62
    7
  6
CONTINUOUS
370
    0
390
F
  0
LAYER
  5
4A
330
2
100
AcDbSymbolTableRecord
100
AcDbLayerTableRecord
  2
Center Mark (ISO)
 70
    1
 62
  131
  6
CONTINUOUS
370
   18
390
F
  0
LAYER
  5
4B
330
2
100
AcDbSymbolTableRecord
100
AcDbLayerTableRecord
  2
Centerline (ISO)
 70
    1
 62
  131
  6
CONTINUOUS
370
   18
390
F
  0
LAYER
  5
4C
330
2
100
AcDbSymbolTableRecord
100
AcDbLayerTableRecord
  2
Innards
 70
    0
 62
  216
420
8388736
  6
CONTINUOUS
370
    0
390
F
  0
LAYER
  5
4D
330
2
100
AcDbSymbolTableRecord
100
AcDbLayerTableRecord
  2
PCB
 70
    0
 62
    1
  6
CONTINUOUS
370
    0
390
F
  0
LAYER
  5
4E
330
2
100
AcDbSymbolTableRecord
100
AcDbLayerTableRecord
  2
Visible (ISO)
 70
    0
 62
    7
  6
CONTINUOUS
370
   35
390
F
  0
LAYER
  5
4F
330
2
100
AcDbSymbolTableRecord
100
AcDbLayerTableRecord
  2
Visible Narrow (ISO)
 70
    0
 62
    7
  6
CONTINUOUS
370
   25
390
F
  0
LAYER
  5
50
330
2
100
AcDbSymbolTableRecord
100
AcDbLayerTableRecord
  2
controls
 70
    0
 62
    2
  6
CONTINUOUS
370
    0
390
F
  0
LAYER
  5
51
330
2
100
AcDbSymbolTableRecord
100
AcDbLayerTableRecord
  2
sticker
 70
    0
 62
    3
  6
CONTINUOUS
370
    0
390
F
  0
ENDTAB
  0
TABLE
  2
STYLE
  5
3
330
0
100
AcDbSymbolTable
 70
    3
  0
STYLE
  5
52
330
2
100
AcDbSymbolTableRecord
100
AcDbTextStyleTableRecord
  2
Standard
 70
    0
 40
0
 41
1
 50
0
 71
    0
 42
1
  3
txt
  4

  0
ENDTAB
  0
TABLE
  2
VIEW
  5
6
330
0
100
AcDbSymbolTable
 70
    0
  0
ENDTAB
  0
TABLE
  2
UCS
  5
7
330
0
100
AcDbSymbolTable
 70
    0
  0
ENDTAB
  0
TABLE
  2
APPID
  5
9
330
0
100
AcDbSymbolTable
 70
    1
  0
APPID
  5
12
330
9
100
AcDbSymbolTableRecord
100
AcDbRegAppTableRecord
  2
ACAD
 70
    0
  0
APPID
  5
53
330
9
100
AcDbSymbolTableRecord
100
AcDbRegAppTableRecord
  2
LibreCad
 70
    0
  0
ENDTAB
  0
TABLE
  2
DIMSTYLE
  5
A
330
0
100
AcDbSymbolTable
 70
    1
100
AcDbDimStyleTable
 71
    1
  0
DIMSTYLE
105
54
330
A
100
AcDbSymbolTableRecord
100
AcDbDimStyleTableRecord
  2
Standard
 70
    0
 40
2.5
 41
2.5
 42
0.625
 43
0.38
 44
1.25
 45
0
 46
0
 47
0
 48
0
 49
1
140
2.5
141
0.09
142
0
143
25.4
144
1
145
0
146
1
147
0.625
148
0
 71
    0
 72
    0
 73
    0
 74
    1
 75
    0
 76
    0
 77
    0
 78
    8
 79
    0
170
    0
171
    2
172
    0
173
    0
174
    0
175
    0
176
    0
177
    0
178
    0
179
    0
271
    2
272
    4
273
    2
274
    2
275
    0
276
    0
277
    2
278
   44
279
    0
280
    0
281
    0
282
    0
283
    1
284
    0
285
    0
286
    0
288
    0
289
    3
340
STANDARD
341

371
   -2
372
   -2
  0
ENDTAB
  0
TABLE
  2
BLOCK_RECORD
  5
1
330
0
100
AcDbSymbolTable
 70
    2
  0
BLOCK_RECORD
  5
1F
330
1
100
AcDbSymbolTableRecord
100
AcDbBlockTableRecord
  2
*Model_Space
 70
    0
280
    1
281
    0
  0
BLOCK_RECORD
  5
1E
330
1
100
AcDbSymbolTableRecord
100
AcDbBlockTableRecord
  2
*Paper_Space
 70
    0
280
    1
281
    0
  0
BLOCK_RECORD
  5
55
330
1
100
AcDbSymbolTableRecord
100
AcDbBlockTableRecord
  2
Switch
 70
    0
280
    1
281
    0
  0
BLOCK_RECORD
  5
58
330
1
100
AcDbSymbolTableRecord
100
AcDbBlockTableRecord
  2
pot
 70
    0
280
    1
281
    0
  0
ENDTAB
  0
ENDSEC
  0
SECTION
  2
BLOCKS
  0
BLOCK
  5
20
330
1F
100
AcDbEntity
  8
0
100
AcDbBlockBegin
  2
*Model_Space
 70
    0
 10
0
 20
0
 30
0
  3
*Model_Space
  1

  0
ENDBLK
  5
21
330
1F
100
AcDbEntity
  8
0
100
AcDbBlockEnd
  0
BLOCK
  5
1C
330
1B
100
AcDbEntity
  8
0
100
AcDbBlockBegin
  2
*Paper_Space
 70
    0
 10
0
 20
0
 30
0
  3
*Paper_Space
  1

  0
ENDBLK
  5
1D
330
1F
100
AcDbEntity
  8
0
100
AcDbBlockEnd
  0
BLOCK
  5
56
330
55
100
AcDbEntity
  8
0
100
AcDbBlockBegin
  2
Switch
 70
    0
 10
0
 20
0
  3
Switch
  1

  0
LWPOLYLINE
  5
5B
100
AcDbEntity
  8
0
  6
ByLayer
 62
  256
370
   -1
100
AcDbPolyline
 90
    8
 70
    1
 43
0
 10
-26.51624999999933
 20
6.253500000000058
 10
-13.71624999999933
 20
6.253500000000058
 42
0.414213562373095
 10
-12.71624999999933
 20
7.253500000000058
 10
-12.71624999999933
 20
26.05350000000006
 42
0.414213562373095
 10
-13.71624999999933
 20
27.05350000000006
 10
-26.51624999999935
 20
27.05350000000006
 42
0.414213562373094
 10
-27.51624999999933
 20
26.05350000000006
 10
-27.51624999999933
 20
7.253500000000058
 42
0.414213562373095
  0
LWPOLYLINE
  5
5C
100
AcDbEntity
  8
0
  6
ByLayer
 62
  256
370
   -1
100
AcDbPolyline
 90
    4
 70
    1
 43
0
 10
-26.56624999999933
 20
6.903500000000058
 10
-13.66624999999932
 20
6.903500000000058
 10
-13.66624999999932
 20
26.40350000000006
 10
-26.56624999999933
 20
26.40350000000006
  0
ENDBLK
  5
57
330
55
100
AcDbEntity
  8
0
100
AcDbBlockEnd
  0
BLOCK
  5
59
330
58
100
AcDbEntity
  8
0
100
AcDbBlockBegin
  2
pot
 70
    0
 10
0
 20
0
  3
pot
  1

  0
CIRCLE
  5
5D
100
AcDbEntity
  8
0
  6
ByLayer
 62
  256
370
   -1
100
AcDbCircle
 10
0
 20
0
 40
12
  0
CIRCLE
  5
5E
100
AcDbEntity
  8
0
  6
ByLayer
 62
  256
370
   -1
100
AcDbCircle
 10
0
 20
0
 40
4.25
  0
CIRCLE
  5
5F
100
AcDbEntity
  8
0
  6
ByLayer
 62
  256
370
   -1
100
AcDbCircle
 10
-11.2
 20
0
 40
1.5
  0
ENDBLK
  5
5A
330
58
100
AcDbEntity
  8
0
100
AcDbBlockEnd
  0
ENDSEC
  0
SECTION
  2
ENTITIES
  0
ARC
  5
60
100
AcDbEntity
  8
Visible (ISO)
  6
ByLayer
 62
  256
370
   -1
100
AcDbCircle
 10
125.7706779092891
 20
26.59754476238408
 40
9.999999999999996
100
AcDbArc
 50
270
 51
0
  0
LINE
  5
61
100
AcDbEntity
  8
Visible (ISO)
  6
ByLayer
 62
  256
370
   -1
100
AcDbLine
 10
125.7706779092891
 20
16.59754476238408
 11
65.77067790928913
 21
16.59754476238408
  0
ARC
  5
62
100
AcDbEntity
  8
Visible (ISO)
  6
ByLayer
 62
  256
370
   -1
100
AcDbCircle
 10
65.77067790928913
 20
26.59754476238408
 40
10
100
AcDbArc
 50
180
 51
270
  0
LINE
  5
63
100
AcDbEntity
  8
Visible Narrow (ISO)
  6
ByLayer
 62
  256
370
   -1
100
AcDbLine
 10
65.77067790928913
 20
23.80214742074696
 11
65.77067790928913
 21
24.34626183466767
  0
ARC
  5
64
100
AcDbEntity
  8
Visible Narrow (ISO)
  6
ByLayer
 62
  256
370
   -1
100
AcDbCircle
 10
65.77067790928913
 20
26.59754476238408
 40
2.251282927716369
100
AcDbArc
 50
180
 51
270
  0
LINE
  5
65
100
AcDbEntity
  8
Visible Narrow (ISO)
  6
ByLayer
 62
  256
370
   -1
100
AcDbLine
 10
62.97528056765213
 20
26.59754476238408
 11
63.51939498157321
 21
26.59754476238408
  0
ARC
  5
66
100
AcDbEntity
  8
Visible Narrow (ISO)
  6
ByLayer
 62
  256
370
   -1
100
AcDbCircle
 10
65.77067790928913
 20
26.59754476238408
 40
2.79539734163702
100
AcDbArc
 50
180
 51
270
  0
LINE
  5
67
100
AcDbEntity
  8
Visible Narrow (ISO)
  6
ByLayer
 62
  256
370
   -1
100
AcDbLine
 10
125.7706779092891
 20
23.80214742074708
 11
125.7706779092891
 21
24.34626183466767
  0
LINE
  5
68
100
AcDbEntity
  8
Visible Narrow (ISO)
  6
ByLayer
 62
  256
370
   -1
100
AcDbLine
 10
65.77067790928913
 20
24.34626183466767
 11
125.7706779092891
 21
24.34626183466767
  0
LINE
  5
69
100
AcDbEntity
  8
Visible Narrow (ISO)
  6
ByLayer
 62
  256
370
   -1
100
AcDbLine
 10
125.7706779092891
 20
23.80214742074708
 11
65.77067790928913
 21
23.80214742074708
  0
LINE
  5
6A
100
AcDbEntity
  8
Visible Narrow (ISO)
  6
ByLayer
 62
  256
370
   -1
100
AcDbLine
 10
128.5660752509261
 20
26.59754476238408
 11
128.0219608370053
 21
26.59754476238408
  0
ARC
  5
6B
100
AcDbEntity
  8
Visible Narrow (ISO)
  6
ByLayer
 62
  256
370
   -1
100
AcDbCircle
 10
125.7706779092891
 20
26.59754476238408
 40
2.251282927716378
100
AcDbArc
 50
270
 51
0
  0
ARC
  5
6C
100
AcDbEntity
  8
Visible Narrow (ISO)
  6
ByLayer
 62
  256
370
   -1
100
AcDbCircle
 10
125.7706779092891
 20
26.59754476238408
 40
2.795397341637022
100
AcDbArc
 50
270
 51
0
  0
LINE
  5
6D
100
AcDbEntity
  8
Visible Narrow (ISO)
  6
ByLayer
 62
  256
370
   -1
100
AcDbLine
 10
57.57606585077519
 20
26.59754476238408
 11
62.97528056765213
 21
26.59754476238408
  0
ARC
  5
6E
100
AcDbEntity
  8
Visible Narrow (ISO)
  6
ByLayer
 62
  256
370
   -1
100
AcDbCircle
 10
65.77067790928913
 20
26.59754476238408
 40
8.194612058514323
100
AcDbArc
 50
180
 51
270
  0
LINE
  5
6F
100
AcDbEntity
  8
Visible Narrow (ISO)
  6
ByLayer
 62
  256
370
   -1
100
AcDbLine
 10
65.77067790928913
 20
23.80214742074708
 11
65.77067790928913
 21
18.40293270386968
  0
LINE
  5
70
100
AcDbEntity
  8
Visible Narrow (ISO)
  6
ByLayer
 62
  256
370
   -1
100
AcDbLine
 10
65.77067790928913
 20
18.40293270386968
 11
125.7706779092891
 21
18.40293270386968
  0
LINE
  5
71
100
AcDbEntity
  8
Visible Narrow (ISO)
  6
ByLayer
 62
  256
370
   -1
100
AcDbLine
 10
125.7706779092891
 20
23.80214742074708
 11
125.7706779092891
 21
18.40293270386968
  0
ARC
  5
72
100
AcDbEntity
  8
Visible Narrow (ISO)
  6
ByLayer
 62
  256
370
   -1
100
AcDbCircle
 10
125.7706779092891
 20
26.59754476238408
 40
8.194612058514357
100
AcDbArc
 50
270
 51
0
  0
LINE
  5
73
100
AcDbEntity
  8
Visible Narrow (ISO)
  6
ByLayer
 62
  256
370
   -1
100
AcDbLine
 10
128.5660752509261
 20
26.59754476238408
 11
133.9652899678042
 21
26.59754476238408
  0
LINE
  5
74
100
AcDbEntity
  8
Visible Narrow (ISO)
  6
ByLayer
 62
  256
370
   -1
100
AcDbLine
 10
135.4199572079212
 20
26.59754476238408
 11
133.9652899678042
 21
26.59754476238408
  0
LINE
  5
75
100
AcDbEntity
  8
Visible Narrow (ISO)
  6
ByLayer
 62
  256
370
   -1
100
AcDbLine
 10
125.7706779092891
 20
18.40293270386968
 11
125.7706779092891
 21
16.94826546375216
  0
ARC
  5
76
100
AcDbEntity
  8
Visible Narrow (ISO)
  6
ByLayer
 62
  256
370
   -1
100
AcDbCircle
 10
125.7706779092891
 20
26.59754476238408
 40
9.649279298631887
100
AcDbArc
 50
270
 51
0
  0
LINE
  5
77
100
AcDbEntity
  8
Visible Narrow (ISO)
  6
ByLayer
 62
  256
370
   -1
100
AcDbLine
 10
65.77067790928913
 20
18.40293270386968
 11
65.77067790928913
 21
16.94826546375216
  0
LINE
  5
78
100
AcDbEntity
  8
Visible Narrow (ISO)
  6
ByLayer
 62
  256
370
   -1
100
AcDbLine
 10
125.7706779092891
 20
16.94826546375216
 11
65.77067790928913
 21
16.94826546375216
  0
LINE
  5
79
100
AcDbEntity
  8
Visible Narrow (ISO)
  6
ByLayer
 62
  256
370
   -1
100
AcDbLine
 10
57.57606585077519
 20
26.59754476238408
 11
56.12139861065816
 21
26.59754476238408
  0
ARC
  5
7A
100
AcDbEntity
  8
Visible Narrow (ISO)
  6
ByLayer
 62
  256
370
   -1
100
AcDbCircle
 10
65.77067790928913
 20
26.59754476238408
 40
9.649279298631885
100
AcDbArc
 50
180
 51
270
  0
LINE
  5
7B
100
AcDbEntity
  8
Visible Narrow (ISO)
  6
ByLayer
 62
  256
370
   -1
100
AcDbLine
 10
55.77067790928913
 20
26.59754476238408
 11
56.12139861065816
 21
26.59754476238408
  0
LINE
  5
7C
100
AcDbEntity
  8
Visible Narrow (ISO)
  6
ByLayer
 62
  256
370
   -1
100
AcDbLine
 10
65.77067790928913
 20
16.94826546375216
 11
65.77067790928913
 21
16.59754476238408
  0
LINE
  5
7D
100
AcDbEntity
  8
Visible Narrow (ISO)
  6
ByLayer
 62
  256
370
   -1
100
AcDbLine
 10
125.7706779092891
 20
16.59754476238408
 11
125.7706779092891
 21
16.94826546375216
  0
LINE
  5
7E
100
AcDbEntity
  8
Visible Narrow (ISO)
  6
ByLayer
 62
  256
370
   -1
100
AcDbLine
 10
135.4199572079212
 20
26.59754476238408
 11
135.7706779092891
 21
26.59754476238408
  0
LINE
  5
7F
100
AcDbEntity
  8
Visible (ISO)
  6
ByLayer
 62
  256
370
   -1
100
AcDbLine
 10
125.3206779092891
 20
181.597544762384
 11
125.3206779092891
 21
181.2657974522124
  0
LINE
  5
80
100
AcDbEntity
  8
Visible (ISO)
  6
ByLayer
 62
  256
370
   -1
100
AcDbLine
 10
125.3206779092891
 20
181.2657974522124
 11
66.22067790928918
 21
181.2657974522124
  0
LINE
  5
81
100
AcDbEntity
  8
Visible (ISO)
  6
ByLayer
 62
  256
370
   -1
100
AcDbLine
 10
66.22067790928918
 20
181.2657974522124
 11
66.22067790928918
 21
181.597544762384
  0
LINE
  5
82
100
AcDbEntity
  8
Visible (ISO)
  6
ByLayer
 62
  256
370
   -1
100
AcDbLine
 10
66.22067790928918
 20
181.597544762384
 11
65.77067790928913
 21
181.597544762384
  0
LINE
  5
83
100
AcDbEntity
  8
Visible (ISO)
  6
ByLayer
 62
  256
370
   -1
100
AcDbLine
 10
125.7706779092891
 20
181.597544762384
 11
125.3206779092891
 21
181.597544762384
  0
LINE
  5
84
100
AcDbEntity
  8
Visible (ISO)
  6
ByLayer
 62
  256
370
   -1
100
AcDbLine
 10
135.7706779092891
 20
171.5975447623841
 11
135.7706779092891
 21
26.59754476238408
  0
LINE
  5
85
100
AcDbEntity
  8
Visible (ISO)
  6
ByLayer
 62
  256
370
   -1
100
AcDbLine
 10
55.77067790928913
 20
171.5975447623841
 11
55.77067790928913
 21
26.59754476238408
  0
LINE
  5
86
100
AcDbEntity
  8
Visible Narrow (ISO)
  6
ByLayer
 62
  256
370
   -1
100
AcDbLine
 10
65.77067790928913
 20
181.246824061016
 11
65.77067790928913
 21
181.597544762384
  0
LINE
  5
87
100
AcDbEntity
  8
Visible Narrow (ISO)
  6
ByLayer
 62
  256
370
   -1
100
AcDbLine
 10
125.7706779092891
 20
181.597544762384
 11
125.7706779092891
 21
181.246824061016
  0
ARC
  5
88
100
AcDbEntity
  8
Visible (ISO)
  6
ByLayer
 62
  256
370
   -1
100
AcDbCircle
 10
125.7706779092891
 20
171.5975447623841
 40
9.999999999999996
100
AcDbArc
 50
0
 51
90
  0
ARC
  5
89
100
AcDbEntity
  8
Visible (ISO)
  6
ByLayer
 62
  256
370
   -1
100
AcDbCircle
 10
65.77067790928913
 20
171.5975447623841
 40
9.999999999999982
100
AcDbArc
 50
90
 51
180
  0
LINE
  5
8A
100
AcDbEntity
  8
Visible Narrow (ISO)
  6
ByLayer
 62
  256
370
   -1
100
AcDbLine
 10
55.77067790928913
 20
171.5975447623841
 11
56.12139861065816
 21
171.5975447623841
  0
LINE
  5
8B
100
AcDbEntity
  8
Visible Narrow (ISO)
  6
ByLayer
 62
  256
370
   -1
100
AcDbLine
 10
135.4199572079212
 20
171.5975447623841
 11
135.7706779092891
 21
171.5975447623841
  0
LINE
  5
8C
100
AcDbEntity
  8
Visible Narrow (ISO)
  6
ByLayer
 62
  256
370
   -1
100
AcDbLine
 10
125.7706779092891
 20
181.246824061016
 11
65.77067790928913
 21
181.246824061016
  0
LINE
  5
8D
100
AcDbEntity
  8
Visible Narrow (ISO)
  6
ByLayer
 62
  256
370
   -1
100
AcDbLine
 10
63.51939498157321
 20
26.59754476238408
 11
63.51939498157321
 21
171.5975447623841
  0
LINE
  5
8E
100
AcDbEntity
  8
Visible Narrow (ISO)
  6
ByLayer
 62
  256
370
   -1
100
AcDbLine
 10
62.97528056765213
 20
171.5975447623841
 11
63.51939498157321
 21
171.5975447623841
  0
LINE
  5
8F
100
AcDbEntity
  8
Visible Narrow (ISO)
  6
ByLayer
 62
  256
370
   -1
100
AcDbLine
 10
62.97528056765213
 20
171.5975447623841
 11
62.97528056765213
 21
26.59754476238408
  0
LINE
  5
90
100
AcDbEntity
  8
Visible Narrow (ISO)
  6
ByLayer
 62
  256
370
   -1
100
AcDbLine
 10
65.77067790928913
 20
174.3929421040211
 11
65.77067790928913
 21
173.8488276901004
  0
ARC
  5
91
100
AcDbEntity
  8
Visible Narrow (ISO)
  6
ByLayer
 62
  256
370
   -1
100
AcDbCircle
 10
65.77067790928913
 20
171.5975447623841
 40
2.79539734163702
100
AcDbArc
 50
90
 51
180
  0
ARC
  5
92
100
AcDbEntity
  8
Visible Narrow (ISO)
  6
ByLayer
 62
  256
370
   -1
100
AcDbCircle
 10
65.77067790928913
 20
171.5975447623841
 40
2.251282927716324
100
AcDbArc
 50
90
 51
180
  0
LINE
  5
93
100
AcDbEntity
  8
Visible Narrow (ISO)
  6
ByLayer
 62
  256
370
   -1
100
AcDbLine
 10
125.7706779092891
 20
174.3929421040211
 11
125.7706779092891
 21
173.8488276901004
  0
LINE
  5
94
100
AcDbEntity
  8
Visible Narrow (ISO)
  6
ByLayer
 62
  256
370
   -1
100
AcDbLine
 10
125.7706779092891
 20
174.3929421040211
 11
65.77067790928913
 21
174.3929421040211
  0
LINE
  5
95
100
AcDbEntity
  8
Visible Narrow (ISO)
  6
ByLayer
 62
  256
370
   -1
100
AcDbLine
 10
65.77067790928913
 20
173.8488276901004
 11
125.7706779092891
 21
173.8488276901004
  0
LINE
  5
96
100
AcDbEntity
  8
Visible Narrow (ISO)
  6
ByLayer
 62
  256
370
   -1
100
AcDbLine
 10
128.5660752509261
 20
171.5975447623841
 11
128.0219608370053
 21
171.5975447623841
  0
ARC
  5
97
100
AcDbEntity
  8
Visible Narrow (ISO)
  6
ByLayer
 62
  256
370
   -1
100
AcDbCircle
 10
125.7706779092891
 20
171.5975447623841
 40
2.795397341637022
100
AcDbArc
 50
0
 51
90
  0
ARC
  5
98
100
AcDbEntity
  8
Visible Narrow (ISO)
  6
ByLayer
 62
  256
370
   -1
100
AcDbCircle
 10
125.7706779092891
 20
171.5975447623841
 40
2.251282927716342
100
AcDbArc
 50
0
 51
90
  0
LINE
  5
99
100
AcDbEntity
  8
Visible Narrow (ISO)
  6
ByLayer
 62
  256
370
   -1
100
AcDbLine
 10
128.5660752509261
 20
171.5975447623841
 11
128.5660752509261
 21
26.59754476238408
  0
LINE
  5
9A
100
AcDbEntity
  8
Visible Narrow (ISO)
  6
ByLayer
 62
  256
370
   -1
100
AcDbLine
 10
128.0219608370053
 20
171.5975447623841
 11
128.0219608370053
 21
26.59754476238408
  0
LINE
  5
9B
100
AcDbEntity
  8
Visible Narrow (ISO)
  6
ByLayer
 62
  256
370
   -1
100
AcDbLine
 10
57.57606585077519
 20
171.5975447623841
 11
57.57606585077519
 21
26.59754476238408
  0
ARC
  5
9C
100
AcDbEntity
  8
Visible Narrow (ISO)
  6
ByLayer
 62
  256
370
   -1
100
AcDbCircle
 10
65.77067790928913
 20
171.5975447623841
 40
8.194612058514315
100
AcDbArc
 50
90
 51
180
  0
LINE
  5
9D
100
AcDbEntity
  8
Visible Narrow (ISO)
  6
ByLayer
 62
  256
370
   -1
100
AcDbLine
 10
65.77067790928913
 20
179.7921568208984
 11
125.7706779092891
 21
179.7921568208984
  0
ARC
  5
9E
100
AcDbEntity
  8
Visible Narrow (ISO)
  6
ByLayer
 62
  256
370
   -1
100
AcDbCircle
 10
125.7706779092891
 20
171.5975447623841
 40
8.194612058514341
100
AcDbArc
 50
0
 51
90
  0
LINE
  5
9F
100
AcDbEntity
  8
Visible Narrow (ISO)
  6
ByLayer
 62
  256
370
   -1
100
AcDbLine
 10
133.9652899678042
 20
26.59754476238408
 11
133.9652899678042
 21
171.5975447623841
  0
LINE
  5
A0
100
AcDbEntity
  8
Visible Narrow (ISO)
  6
ByLayer
 62
  256
370
   -1
100
AcDbLine
 10
135.4199572079212
 20
171.5975447623841
 11
133.9652899678042
 21
171.5975447623841
  0
ARC
  5
A1
100
AcDbEntity
  8
Visible Narrow (ISO)
  6
ByLayer
 62
  256
370
   -1
100
AcDbCircle
 10
125.7706779092891
 20
171.5975447623841
 40
9.649279298631859
100
AcDbArc
 50
0
 51
90
  0
LINE
  5
A2
100
AcDbEntity
  8
Visible Narrow (ISO)
  6
ByLayer
 62
  256
370
   -1
100
AcDbLine
 10
125.7706779092891
 20
179.7921568208983
 11
125.7706779092891
 21
181.2468240610159
  0
LINE
  5
A3
100
AcDbEntity
  8
Visible Narrow (ISO)
  6
ByLayer
 62
  256
370
   -1
100
AcDbLine
 10
135.4199572079212
 20
26.59754476238408
 11
135.4199572079212
 21
171.5975447623841
  0
LINE
  5
A4
100
AcDbEntity
  8
Visible Narrow (ISO)
  6
ByLayer
 62
  256
370
   -1
100
AcDbLine
 10
65.77067790928913
 20
179.7921568208983
 11
65.77067790928913
 21
181.2468240610159
  0
ARC
  5
A5
100
AcDbEntity
  8
Visible Narrow (ISO)
  6
ByLayer
 62
  256
370
   -1
100
AcDbCircle
 10
65.77067790928913
 20
171.5975447623841
 40
9.649279298631877
100
AcDbArc
 50
90
 51
180
  0
LINE
  5
A6
100
AcDbEntity
  8
Visible Narrow (ISO)
  6
ByLayer
 62
  256
370
   -1
100
AcDbLine
 10
57.57606585077519
 20
171.5975447623841
 11
56.12139861065816
 21
171.5975447623841
  0
LINE
  5
A7
100
AcDbEntity
  8
Visible Narrow (ISO)
  6
ByLayer
 62
  256
370
   -1
100
AcDbLine
 10
56.12139861065816
 20
171.5975447623841
 11
56.12139861065816
 21
26.59754476238408
  0
LINE
  5
A8
100
AcDbEntity
  8
Visible Narrow (ISO)
  6
ByLayer
 62
  256
370
   -1
100
AcDbLine
 10
57.57606585077519
 20
171.5975447623841
 11
62.97528056765213
 21
171.5975447623841
  0
LINE
  5
A9
100
AcDbEntity
  8
Visible Narrow (ISO)
  6
ByLayer
 62
  256
370
   -1
100
AcDbLine
 10
65.77067790928913
 20
174.3929421040211
 11
65.77067790928913
 21
179.7921568208984
  0
LINE
  5
AA
100
AcDbEntity
  8
Visible Narrow (ISO)
  6
ByLayer
 62
  256
370
   -1
100
AcDbLine
 10
125.7706779092891
 20
174.3929421040211
 11
125.7706779092891
 21
179.7921568208984
  0
LINE
  5
AB
100
AcDbEntity
  8
Visible Narrow (ISO)
  6
ByLayer
 62
  256
370
   -1
100
AcDbLine
 10
128.5660752509261
 20
171.5975447623841
 11
133.9652899678042
 21
171.5975447623841
  0
LINE
  5
AC
100
AcDbEntity
  8
Centerline (ISO)
  6
CONTINUOUS
 62
  256
370
   -1
100
AcDbLine
 10
95.77067790928913
 20
186.2657974522124
 11
95.77067790928913
 21
11.59754476238408
  0
LINE
  5
AD
100
AcDbEntity
  8
sticker
  6
ByLayer
 62
  256
370
   -1
100
AcDbLine
 10
125.271
 20
25.5975
 11
66.27070000000001
 21
25.5975
  0
ARC
  5
AE
100
AcDbEntity
  8
sticker
  6
ByLayer
 62
  256
370
   -1
100
AcDbCircle
 10
66.27067790928913
 20
171.097544762384
 40
1.500000000000021
100
AcDbArc
 50
90
 51
180
  0
LINE
  5
AF
100
AcDbEntity
  8
sticker
  6
ByLayer
 62
  256
370
   -1
100
AcDbLine
 10
64.77067790928913
 20
27.09754476238399
 11
64.77067790928913
 21
171.0975447623842
  0
ARC
  5
B0
100
AcDbEntity
  8
sticker
  6
ByLayer
 62
  256
370
   -1
100
AcDbCircle
 10
66.27067790928913
 20
27.09754476238399
 40
1.500000000000003
100
AcDbArc
 50
180
 51
270
  0
LINE
  5
B1
100
AcDbEntity
  8
sticker
  6
ByLayer
 62
  256
370
   -1
100
AcDbLine
 10
126.7706779092891
 20
171.0975447623842
 11
126.7706779092891
 21
27.09754476238399
  0
ARC
  5
B2
100
AcDbEntity
  8
sticker
  6
ByLayer
 62
  256
370
   -1
100
AcDbCircle
 10
125.2706779092891
 20
171.097544762384
 40
1.500000000000012
100
AcDbArc
 50
0
 51
90
  0
LINE
  5
B3
100
AcDbEntity
  8
sticker
  6
ByLayer
 62
  256
370
   -1
100
AcDbLine
 10
66.27067790928913
 20
172.597544762384
 11
125.2706779092891
 21
172.597544762384
  0
LINE
  5
B4
100
AcDbEntity
  8
Visible Narrow (ISO)
  6
ByLayer
 62
  256
370
   -1
100
AcDbLine
 10
59.53397578372523
 20
26.59754476238396
 11
59.63391486642712
 21
26.59754476238396
  0
LINE
  5
B5
100
AcDbEntity
  8
Visible Narrow (ISO)
  6
ByLayer
 62
  256
370
   -1
100
AcDbLine
 10
59.63391486642712
 20
26.59754476238396
 11
59.63391486642712
 21
171.7975447623841
  0
LINE
  5
B6
100
AcDbEntity
  8
Visible Narrow (ISO)
  6
ByLayer
 62
  256
370
   -1
100
AcDbLine
 10
59.63391486642712
 20
171.7975447623841
 11
59.53397578372523
 21
171.7975447623841
  0
LINE
  5
B7
100
AcDbEntity
  8
Visible Narrow (ISO)
  6
ByLayer
 62
  256
370
   -1
100
AcDbLine
 10
59.53397578372523
 20
171.7975447623841
 11
59.53397578372523
 21
26.59754476238396
  0
LINE
  5
B8
100
AcDbEntity
  8
Visible Narrow (ISO)
  6
ByLayer
 62
  256
370
   -1
100
AcDbLine
 10
65.77067790928203
 20
20.36084263682616
 11
65.77067790928203
 21
20.46078171952806
  0
ARC
  5
B9
100
AcDbEntity
  8
Visible Narrow (ISO)
  6
ByLayer
 62
  256
370
   -1
100
AcDbCircle
 10
65.77067790928203
 20
26.59754476238396
 40
6.136763042855921
100
AcDbArc
 50
180
 51
270
  0
ARC
  5
BA
100
AcDbEntity
  8
Visible Narrow (ISO)
  6
ByLayer
 62
  256
370
   -1
100
AcDbCircle
 10
65.77067790928203
 20
26.59754476238396
 40
6.236702125557855
100
AcDbArc
 50
180
 51
270
  0
LINE
  5
BB
100
AcDbEntity
  8
Visible Narrow (ISO)
  6
ByLayer
 62
  256
370
   -1
100
AcDbLine
 10
64.17067790928212
 20
176.3343078052399
 11
64.17067790928212
 21
176.4342468879418
  0
ARC
  5
BC
100
AcDbEntity
  8
Visible Narrow (ISO)
  6
ByLayer
 62
  256
370
   -1
100
AcDbCircle
 10
64.17067790928212
 20
171.7975447623841
 40
4.636702125557858
100
AcDbArc
 50
90
 51
180
  0
ARC
  5
BD
100
AcDbEntity
  8
Visible Narrow (ISO)
  6
ByLayer
 62
  256
370
   -1
100
AcDbCircle
 10
64.17067790928212
 20
171.7975447623841
 40
4.536763042855939
100
AcDbArc
 50
90
 51
180
  0
LINE
  5
BE
100
AcDbEntity
  8
Visible Narrow (ISO)
  6
ByLayer
 62
  256
370
   -1
100
AcDbLine
 10
125.7706779092834
 20
20.36084263682616
 11
125.7706779092834
 21
20.46078171952806
  0
LINE
  5
BF
100
AcDbEntity
  8
Visible Narrow (ISO)
  6
ByLayer
 62
  256
370
   -1
100
AcDbLine
 10
125.7706779092834
 20
20.46078171952806
 11
65.77067790928203
 21
20.46078171952806
  0
LINE
  5
C0
100
AcDbEntity
  8
Visible Narrow (ISO)
  6
ByLayer
 62
  256
370
   -1
100
AcDbLine
 10
65.77067790928203
 20
20.36084263682616
 11
125.7706779092834
 21
20.36084263682616
  0
LINE
  5
C1
100
AcDbEntity
  8
Visible Narrow (ISO)
  6
ByLayer
 62
  256
370
   -1
100
AcDbLine
 10
127.3706779092824
 20
176.33430780524
 11
127.3706779092824
 21
176.4342468879419
  0
LINE
  5
C2
100
AcDbEntity
  8
Visible Narrow (ISO)
  6
ByLayer
 62
  256
370
   -1
100
AcDbLine
 10
127.3706779092824
 20
176.4342468879419
 11
64.17067790928212
 21
176.4342468879419
  0
LINE
  5
C3
100
AcDbEntity
  8
Visible Narrow (ISO)
  6
ByLayer
 62
  256
370
   -1
100
AcDbLine
 10
64.17067790928212
 20
176.33430780524
 11
127.3706779092824
 21
176.33430780524
  0
LINE
  5
C4
100
AcDbEntity
  8
Visible Narrow (ISO)
  6
ByLayer
 62
  256
370
   -1
100
AcDbLine
 10
132.0073800348411
 20
26.59754476238396
 11
131.9074409521392
 21
26.59754476238396
  0
ARC
  5
C5
100
AcDbEntity
  8
Visible Narrow (ISO)
  6
ByLayer
 62
  256
370
   -1
100
AcDbCircle
 10
125.7706779092834
 20
26.59754476238396
 40
6.136763042855921
100
AcDbArc
 50
270
 51
0
  0
ARC
  5
C6
100
AcDbEntity
  8
Visible Narrow (ISO)
  6
ByLayer
 62
  256
370
   -1
100
AcDbCircle
 10
125.7706779092834
 20
26.59754476238396
 40
6.236702125557869
100
AcDbArc
 50
270
 51
0
  0
LINE
  5
C7
100
AcDbEntity
  8
Visible Narrow (ISO)
  6
ByLayer
 62
  256
370
   -1
100
AcDbLine
 10
131.9074409521383
 20
171.7975447623841
 11
132.0073800348411
 21
171.7975447623841
  0
ARC
  5
C8
100
AcDbEntity
  8
Visible Narrow (ISO)
  6
ByLayer
 62
  256
370
   -1
100
AcDbCircle
 10
127.3706779092824
 20
171.7975447623841
 40
4.636702125557823
100
AcDbArc
 50
0
 51
90
  0
ARC
  5
C9
100
AcDbEntity
  8
Visible Narrow (ISO)
  6
ByLayer
 62
  256
370
   -1
100
AcDbCircle
 10
127.3706779092824
 20
171.7975447623841
 40
4.536763042855938
100
AcDbArc
 50
0
 51
90
  0
LINE
  5
CA
100
AcDbEntity
  8
Visible Narrow (ISO)
  6
ByLayer
 62
  256
370
   -1
100
AcDbLine
 10
131.9074409521383
 20
171.7975447623841
 11
131.9074409521383
 21
26.59754476238396
  0
LINE
  5
CB
100
AcDbEntity
  8
Visible Narrow (ISO)
  6
ByLayer
 62
  256
370
   -1
100
AcDbLine
 10
132.0073800348411
 20
26.59754476238396
 11
132.0073800348411
 21
171.7975447623841
  0
LINE
  5
CC
100
AcDbEntity
  8
Visible Narrow (ISO)
  6
ByLayer
 62
  256
370
   -1
100
AcDbLine
 10
125.7706779092834
 20
20.36084263682616
 11
125.7706779092893
 21
19.99754476238405
  0
ARC
  5
CD
100
AcDbEntity
  8
Visible (ISO)
  6
ByLayer
 62
  256
370
   -1
100
AcDbCircle
 10
125.7706779092893
 20
26.59754476238396
 40
6.600000000000019
100
AcDbArc
 50
270
 51
0
  0
LINE
  5
CE
100
AcDbEntity
  8
Visible Narrow (ISO)
  6
ByLayer
 62
  256
370
   -1
100
AcDbLine
 10
132.3706779092892
 20
26.59754476238396
 11
132.0073800348411
 21
26.59754476238396
  0
LINE
  5
CF
100
AcDbEntity
  8
Visible Narrow (ISO)
  6
ByLayer
 62
  256
370
   -1
100
AcDbLine
 10
65.7706779092893
 20
19.99754476238405
 11
65.77067790928203
 21
20.36084263682616
  0
LINE
  5
D0
100
AcDbEntity
  8
Visible Narrow (ISO)
  6
ByLayer
 62
  256
370
   -1
100
AcDbLine
 10
59.53397578372523
 20
26.59754476238396
 11
59.1706779092894
 21
26.59754476238396
  0
ARC
  5
D1
100
AcDbEntity
  8
Visible (ISO)
  6
ByLayer
 62
  256
370
   -1
100
AcDbCircle
 10
65.7706779092893
 20
26.59754476238396
 40
6.600000000000009
100
AcDbArc
 50
180
 51
270
  0
LINE
  5
D2
100
AcDbEntity
  8
Visible Narrow (ISO)
  6
ByLayer
 62
  256
370
   -1
100
AcDbLine
 10
59.1706779092894
 20
171.7975447623841
 11
59.53397578372523
 21
171.7975447623841
  0
ARC
  5
D3
100
AcDbEntity
  8
Visible (ISO)
  6
ByLayer
 62
  256
370
   -1
100
AcDbCircle
 10
127.3706779092892
 20
171.7975447623841
 40
5
100
AcDbArc
 50
0
 51
90
  0
ARC
  5
D4
100
AcDbEntity
  8
Visible (ISO)
  6
ByLayer
 62
  256
370
   -1
100
AcDbCircle
 10
64.17067790928803
 20
171.7975447623841
 40
5
100
AcDbArc
 50
90
 51
180
  0
LINE
  5
D5
100
AcDbEntity
  8
Visible Narrow (ISO)
  6
ByLayer
 62
  256
370
   -1
100
AcDbLine
 10
132.0073800348411
 20
171.7975447623841
 11
132.3706779092892
 21
171.7975447623841
  0
LINE
  5
D6
100
AcDbEntity
  8
Visible Narrow (ISO)
  6
ByLayer
 62
  256
370
   -1
100
AcDbLine
 10
127.3706779092892
 20
176.797544762384
 11
127.3706779092824
 21
176.4342468879419
  0
LINE
  5
D7
100
AcDbEntity
  8
Visible Narrow (ISO)
  6
ByLayer
 62
  256
370
   -1
100
AcDbLine
 10
64.17067790928212
 20
176.4342468879419
 11
64.17067790928803
 21
176.797544762384
  0
LINE
  5
D8
100
AcDbEntity
  8
Visible (ISO)
  6
ByLayer
 62
  256
370
   -1
100
AcDbLine
 10
125.7706779092893
 20
19.99754476238405
 11
65.7706779092893
 21
19.99754476238405
  0
ARC
  5
D9
100
AcDbEntity
  8
Visible (ISO)
  6
ByLayer
 62
  256
370
   -1
100
AcDbCircle
 10
65.7706779092893
 20
26.59754476238396
 40
9.999999999999996
100
AcDbArc
 50
180
 51
270
  0
LINE
  5
DA
100
AcDbEntity
  8
Visible (ISO)
  6
ByLayer
 62
  256
370
   -1
100
AcDbLine
 10
65.7706779092893
 20
16.59754476238408
 11
125.7706779092893
 21
16.59754476238408
  0
ARC
  5
DB
100
AcDbEntity
  8
Visible (ISO)
  6
ByLayer
 62
  256
370
   -1
100
AcDbCircle
 10
125.7706779092893
 20
26.59754476238396
 40
10
100
AcDbArc
 50
270
 51
0
  0
LINE
  5
DC
100
AcDbEntity
  8
Visible (ISO)
  6
ByLayer
 62
  256
370
   -1
100
AcDbLine
 10
59.1706779092894
 20
26.59754476238396
 11
59.1706779092894
 21
171.7975447623841
  0
LINE
  5
DD
100
AcDbEntity
  8
Visible (ISO)
  6
ByLayer
 62
  256
370
   -1
100
AcDbLine
 10
125.320677909289
 20
176.797544762384
 11
127.3706779092892
 21
176.797544762384
  0
LINE
  5
DE
100
AcDbEntity
  8
Visible (ISO)
  6
ByLayer
 62
  256
370
   -1
100
AcDbLine
 10
132.3706779092892
 20
171.7975447623841
 11
132.3706779092892
 21
26.59754476238396
  0
LINE
  5
DF
100
AcDbEntity
  8
Visible (ISO)
  6
ByLayer
 62
  256
370
   -1
100
AcDbLine
 10
64.17067790928803
 20
176.797544762384
 11
66.22067790928912
 21
176.797544762384
  0
CIRCLE
  5
E0
100
AcDbEntity
  8
Visible Narrow (ISO)
  6
ByLayer
 62
  256
370
   -1
100
AcDbCircle
 10
69.77067790928203
 20
24.58008437763817
 40
3
  0
CIRCLE
  5
E1
100
AcDbEntity
  8
Visible Narrow (ISO)
  6
ByLayer
 62
  256
370
   -1
100
AcDbCircle
 10
63.77067790928203
 20
170.5975447623841
 40
3
  0
CIRCLE
  5
E2
100
AcDbEntity
  8
Visible Narrow (ISO)
  6
ByLayer
 62
  256
370
   -1
100
AcDbCircle
 10
127.770677909282
 20
170.5975447623841
 40
3
  0
CIRCLE
  5
E3
100
AcDbEntity
  8
Visible Narrow (ISO)
  6
ByLayer
 62
  256
370
   -1
100
AcDbCircle
 10
121.7706779092834
 20
24.59754476238396
 40
3
  0
LINE
  5
E4
100
AcDbEntity
  8
Visible (ISO)
  6
ByLayer
 62
  256
370
   -1
100
AcDbLine
 10
110.9473978726834
 20
51.56980218506044
 11
110.7988598562471
 21
51.42126416862396
  0
LINE
  5
E5
100
AcDbEntity
  8
Visible (ISO)
  6
ByLayer
 62
  256
370
   -1
100
AcDbLine
 10
110.7988598562471
 20
51.42126416862396
 11
109.5808481214683
 21
52.74325251490797
  0
LINE
  5
E6
100
AcDbEntity
  8
Visible (ISO)
  6
ByLayer
 62
  256
370
   -1
100
AcDbLine
 10
109.5808481214683
 20
52.74325251490797
 11
108.3628363866903
 21
51.42126416862396
  0
LINE
  5
E7
100
AcDbEntity
  8
Visible (ISO)
  6
ByLayer
 62
  256
370
   -1
100
AcDbLine
 10
108.3628363866903
 20
51.42126416862396
 11
108.2142983702544
 21
51.56980218506044
  0
LINE
  5
E8
100
AcDbEntity
  8
Visible (ISO)
  6
ByLayer
 62
  256
370
   -1
100
AcDbLine
 10
108.2142983702544
 20
51.56980218506044
 11
109.5808481214683
 21
53.04032854778069
  0
LINE
  5
E9
100
AcDbEntity
  8
Visible (ISO)
  6
ByLayer
 62
  256
370
   -1
100
AcDbLine
 10
109.5808481214683
 20
53.04032854778069
 11
110.9473978726834
 21
51.56980218506044
  0
SPLINE
  5
EA
100
AcDbEntity
  8
Visible (ISO)
  6
ByLayer
 62
  256
370
   -1
100
AcDbSpline
210
0
220
0
230
0
 70
    8
 71
    2
 72
    6
 73
    3
 74
    0
 42
1e-007
 43
1e-007
 40
0
 40
0
 40
0
 40
1
 40
1
 40
1
 10
110.6651756414532
 20
56.14477309130137
 30
0
 10
110.8731288644651
 20
55.93681986829034
 30
0
 10
110.8731288644651
 20
55.50605962062474
 30
0
  0
SPLINE
  5
EB
100
AcDbEntity
  8
Visible (ISO)
  6
ByLayer
 62
  256
370
   -1
100
AcDbSpline
210
0
220
0
230
0
 70
    8
 71
    2
 72
    6
 73
    3
 74
    0
 42
1e-007
 43
1e-007
 40
0
 40
0
 40
0
 40
1
 40
1
 40
1
 10
110.8731288644651
 20
55.50605962062474
 30
0
 10
110.8731288644651
 20
55.04559176967206
 30
0
 10
110.6354680381662
 20
54.80793094337378
 30
0
  0
SPLINE
  5
EC
100
AcDbEntity
  8
Visible (ISO)
  6
ByLayer
 62
  256
370
   -1
100
AcDbSpline
210
0
220
0
230
0
 70
    8
 71
    2
 72
    6
 73
    3
 74
    0
 42
1e-007
 43
1e-007
 40
0
 40
0
 40
0
 40
1
 40
1
 40
1
 10
110.6354680381662
 20
54.80793094337378
 30
0
 10
110.4275148151552
 20
54.59997772036286
 30
0
 10
110.1452925839264
 20
54.59997772036286
 30
0
  0
LINE
  5
ED
100
AcDbEntity
  8
Visible (ISO)
  6
ByLayer
 62
  256
370
   -1
100
AcDbLine
 10
110.1452925839264
 20
54.59997772036286
 11
110.1452925839264
 21
54.94161515816654
  0
SPLINE
  5
EE
100
AcDbEntity
  8
Visible (ISO)
  6
ByLayer
 62
  256
370
   -1
100
AcDbSpline
210
0
220
0
230
0
 70
    8
 71
    2
 72
    6
 73
    3
 74
    0
 42
1e-007
 43
1e-007
 40
0
 40
0
 40
0
 40
1
 40
1
 40
1
 10
110.1452925839264
 20
54.94161515816654
 30
0
 10
110.3235382036502
 20
54.94161515816654
 30
0
 10
110.4423686167995
 20
55.06044557131565
 30
0
  0
SPLINE
  5
EF
100
AcDbEntity
  8
Visible (ISO)
  6
ByLayer
 62
  256
370
   -1
100
AcDbSpline
210
0
220
0
230
0
 70
    8
 71
    2
 72
    6
 73
    3
 74
    0
 42
1e-007
 43
1e-007
 40
0
 40
0
 40
0
 40
1
 40
1
 40
1
 10
110.4423686167995
 20
55.06044557131565
 30
0
 10
110.5760528315924
 20
55.19412978610848
 30
0
 10
110.5760528315924
 20
55.47635201733755
 30
0
  0
SPLINE
  5
F0
100
AcDbEntity
  8
Visible (ISO)
  6
ByLayer
 62
  256
370
   -1
100
AcDbSpline
210
0
220
0
230
0
 70
    8
 71
    2
 72
    6
 73
    3
 74
    0
 42
1e-007
 43
1e-007
 40
0
 40
0
 40
0
 40
1
 40
1
 40
1
 10
110.5760528315924
 20
55.47635201733755
 30
0
 10
110.5760528315924
 20
55.78828185185398
 30
0
 10
110.4572224184432
 20
55.90711226500304
 30
0
  0
SPLINE
  5
F1
100
AcDbEntity
  8
Visible (ISO)
  6
ByLayer
 62
  256
370
   -1
100
AcDbSpline
210
0
220
0
230
0
 70
    8
 71
    2
 72
    6
 73
    3
 74
    0
 42
1e-007
 43
1e-007
 40
0
 40
0
 40
0
 40
1
 40
1
 40
1
 10
110.4572224184432
 20
55.90711226500304
 30
0
 10
110.3532458069373
 20
56.01108887650855
 30
0
 10
110.2195615921452
 20
56.01108887650855
 30
0
  0
SPLINE
  5
F2
100
AcDbEntity
  8
Visible (ISO)
  6
ByLayer
 62
  256
370
   -1
100
AcDbSpline
210
0
220
0
230
0
 70
    8
 71
    2
 72
    6
 73
    3
 74
    0
 42
1e-007
 43
1e-007
 40
0
 40
0
 40
0
 40
1
 40
1
 40
1
 10
110.2195615921452
 20
56.01108887650855
 30
0
 10
110.0858773773522
 20
56.01108887650855
 30
0
 10
110.0264621707781
 20
55.95167366993394
 30
0
  0
SPLINE
  5
F3
100
AcDbEntity
  8
Visible (ISO)
  6
ByLayer
 62
  256
370
   -1
100
AcDbSpline
210
0
220
0
230
0
 70
    8
 71
    2
 72
    6
 73
    3
 74
    0
 42
1e-007
 43
1e-007
 40
0
 40
0
 40
0
 40
1
 40
1
 40
1
 10
110.0264621707781
 20
55.95167366993394
 30
0
 10
109.9521931625592
 20
55.87740466171579
 30
0
 10
109.8779241543413
 20
55.68430524034858
 30
0
  0
SPLINE
  5
F4
100
AcDbEntity
  8
Visible (ISO)
  6
ByLayer
 62
  256
370
   -1
100
AcDbSpline
210
0
220
0
230
0
 70
    8
 71
    2
 72
    6
 73
    3
 74
    0
 42
1e-007
 43
1e-007
 40
0
 40
0
 40
0
 40
1
 40
1
 40
1
 10
109.8779241543413
 20
55.68430524034858
 30
0
 10
109.7293861379041
 20
55.34266780254478
 30
0
 10
109.5362867165374
 20
54.91190755487924
 30
0
  0
SPLINE
  5
F5
100
AcDbEntity
  8
Visible (ISO)
  6
ByLayer
 62
  256
370
   -1
100
AcDbSpline
210
0
220
0
230
0
 70
    8
 71
    2
 72
    6
 73
    3
 74
    0
 42
1e-007
 43
1e-007
 40
0
 40
0
 40
0
 40
1
 40
1
 40
1
 10
109.5362867165374
 20
54.91190755487924
 30
0
 10
109.4917253116061
 20
54.79307714173018
 30
0
 10
109.3877487001011
 20
54.68910053022466
 30
0
  0
SPLINE
  5
F6
100
AcDbEntity
  8
Visible (ISO)
  6
ByLayer
 62
  256
370
   -1
100
AcDbSpline
210
0
220
0
230
0
 70
    8
 71
    2
 72
    6
 73
    3
 74
    0
 42
1e-007
 43
1e-007
 40
0
 40
0
 40
0
 40
1
 40
1
 40
1
 10
109.3877487001011
 20
54.68910053022466
 30
0
 10
109.224356882021
 20
54.52570871214465
 30
0
 10
109.0015498573663
 20
54.52570871214465
 30
0
  0
SPLINE
  5
F7
100
AcDbEntity
  8
Visible (ISO)
  6
ByLayer
 62
  256
370
   -1
100
AcDbSpline
210
0
220
0
230
0
 70
    8
 71
    2
 72
    6
 73
    3
 74
    0
 42
1e-007
 43
1e-007
 40
0
 40
0
 40
0
 40
1
 40
1
 40
1
 10
109.0015498573663
 20
54.52570871214465
 30
0
 10
108.7044738244942
 20
54.52570871214465
 30
0
 10
108.4965206014833
 20
54.73366193515557
 30
0
  0
SPLINE
  5
F8
100
AcDbEntity
  8
Visible (ISO)
  6
ByLayer
 62
  256
370
   -1
100
AcDbSpline
210
0
220
0
230
0
 70
    8
 71
    2
 72
    6
 73
    3
 74
    0
 42
1e-007
 43
1e-007
 40
0
 40
0
 40
0
 40
1
 40
1
 40
1
 10
108.4965206014833
 20
54.73366193515557
 30
0
 10
108.2737135768281
 20
54.95646895981014
 30
0
 10
108.2737135768281
 20
55.46149821569395
 30
0
  0
SPLINE
  5
F9
100
AcDbEntity
  8
Visible (ISO)
  6
ByLayer
 62
  256
370
   -1
100
AcDbSpline
210
0
220
0
230
0
 70
    8
 71
    2
 72
    6
 73
    3
 74
    0
 42
1e-007
 43
1e-007
 40
0
 40
0
 40
0
 40
1
 40
1
 40
1
 10
108.2737135768281
 20
55.46149821569395
 30
0
 10
108.2737135768281
 20
55.95167366993394
 30
0
 10
108.5410820064141
 20
56.21904209951947
 30
0
  0
SPLINE
  5
FA
100
AcDbEntity
  8
Visible (ISO)
  6
ByLayer
 62
  256
370
   -1
100
AcDbSpline
210
0
220
0
230
0
 70
    8
 71
    2
 72
    6
 73
    3
 74
    0
 42
1e-007
 43
1e-007
 40
0
 40
0
 40
0
 40
1
 40
1
 40
1
 10
108.5410820064141
 20
56.21904209951947
 30
0
 10
108.7341814277804
 20
56.41214152088673
 30
0
 10
109.1055264688723
 20
56.41214152088673
 30
0
  0
LINE
  5
FB
100
AcDbEntity
  8
Visible (ISO)
  6
ByLayer
 62
  256
370
   -1
100
AcDbLine
 10
109.1055264688723
 20
56.41214152088673
 11
109.1055264688723
 21
56.07050408308305
  0
SPLINE
  5
FC
100
AcDbEntity
  8
Visible (ISO)
  6
ByLayer
 62
  256
370
   -1
100
AcDbSpline
210
0
220
0
230
0
 70
    8
 71
    2
 72
    6
 73
    3
 74
    0
 42
1e-007
 43
1e-007
 40
0
 40
0
 40
0
 40
1
 40
1
 40
1
 10
109.1055264688723
 20
56.07050408308305
 30
0
 10
108.8381580392863
 20
56.07050408308305
 30
0
 10
108.719327626137
 20
55.95167366993394
 30
0
  0
SPLINE
  5
FD
100
AcDbEntity
  8
Visible (ISO)
  6
ByLayer
 62
  256
370
   -1
100
AcDbSpline
210
0
220
0
230
0
 70
    8
 71
    2
 72
    6
 73
    3
 74
    0
 42
1e-007
 43
1e-007
 40
0
 40
0
 40
0
 40
1
 40
1
 40
1
 10
108.719327626137
 20
55.95167366993394
 30
0
 10
108.5559358080574
 20
55.78828185185398
 30
0
 10
108.5559358080574
 20
55.44664441405024
 30
0
  0
SPLINE
  5
FE
100
AcDbEntity
  8
Visible (ISO)
  6
ByLayer
 62
  256
370
   -1
100
AcDbSpline
210
0
220
0
230
0
 70
    8
 71
    2
 72
    6
 73
    3
 74
    0
 42
1e-007
 43
1e-007
 40
0
 40
0
 40
0
 40
1
 40
1
 40
1
 10
108.5559358080574
 20
55.44664441405024
 30
0
 10
108.5559358080574
 20
55.13471457953386
 30
0
 10
108.7044738244942
 20
54.98617656309744
 30
0
  0
SPLINE
  5
FF
100
AcDbEntity
  8
Visible (ISO)
  6
ByLayer
 62
  256
370
   -1
100
AcDbSpline
210
0
220
0
230
0
 70
    8
 71
    2
 72
    6
 73
    3
 74
    0
 42
1e-007
 43
1e-007
 40
0
 40
0
 40
0
 40
1
 40
1
 40
1
 10
108.7044738244942
 20
54.98617656309744
 30
0
 10
108.8233042376434
 20
54.86734614994839
 30
0
 10
108.9421346507922
 20
54.86734614994839
 30
0
  0
SPLINE
  5
100
100
AcDbEntity
  8
Visible (ISO)
  6
ByLayer
 62
  256
370
   -1
100
AcDbSpline
210
0
220
0
230
0
 70
    8
 71
    2
 72
    6
 73
    3
 74
    0
 42
1e-007
 43
1e-007
 40
0
 40
0
 40
0
 40
1
 40
1
 40
1
 10
108.9421346507922
 20
54.86734614994839
 30
0
 10
109.0758188655852
 20
54.86734614994839
 30
0
 10
109.1649416754464
 20
54.95646895981014
 30
0
  0
SPLINE
  5
101
100
AcDbEntity
  8
Visible (ISO)
  6
ByLayer
 62
  256
370
   -1
100
AcDbSpline
210
0
220
0
230
0
 70
    8
 71
    2
 72
    6
 73
    3
 74
    0
 42
1e-007
 43
1e-007
 40
0
 40
0
 40
0
 40
1
 40
1
 40
1
 10
109.1649416754464
 20
54.95646895981014
 30
0
 10
109.2392106836652
 20
55.03073796802835
 30
0
 10
109.3134796918823
 20
55.19412978610848
 30
0
  0
SPLINE
  5
102
100
AcDbEntity
  8
Visible (ISO)
  6
ByLayer
 62
  256
370
   -1
100
AcDbSpline
210
0
220
0
230
0
 70
    8
 71
    2
 72
    6
 73
    3
 74
    0
 42
1e-007
 43
1e-007
 40
0
 40
0
 40
0
 40
1
 40
1
 40
1
 10
109.3134796918823
 20
55.19412978610848
 30
0
 10
109.3877487001011
 20
55.34266780254478
 30
0
 10
109.4917253116061
 20
55.58032862884295
 30
0
  0
SPLINE
  5
103
100
AcDbEntity
  8
Visible (ISO)
  6
ByLayer
 62
  256
370
   -1
100
AcDbSpline
210
0
220
0
230
0
 70
    8
 71
    2
 72
    6
 73
    3
 74
    0
 42
1e-007
 43
1e-007
 40
0
 40
0
 40
0
 40
1
 40
1
 40
1
 10
109.4917253116061
 20
55.58032862884295
 30
0
 10
109.6105557247562
 20
55.84769705842848
 30
0
 10
109.6848247329742
 20
56.01108887650855
 30
0
  0
SPLINE
  5
104
100
AcDbEntity
  8
Visible (ISO)
  6
ByLayer
 62
  256
370
   -1
100
AcDbSpline
210
0
220
0
230
0
 70
    8
 71
    2
 72
    6
 73
    3
 74
    0
 42
1e-007
 43
1e-007
 40
0
 40
0
 40
0
 40
1
 40
1
 40
1
 10
109.6848247329742
 20
56.01108887650855
 30
0
 10
109.7293861379041
 20
56.12991928965766
 30
0
 10
109.8185089477662
 20
56.21904209951947
 30
0
  0
SPLINE
  5
105
100
AcDbEntity
  8
Visible (ISO)
  6
ByLayer
 62
  256
370
   -1
100
AcDbSpline
210
0
220
0
230
0
 70
    8
 71
    2
 72
    6
 73
    3
 74
    0
 42
1e-007
 43
1e-007
 40
0
 40
0
 40
0
 40
1
 40
1
 40
1
 10
109.8185089477662
 20
56.21904209951947
 30
0
 10
109.9521931625592
 20
56.35272631431224
 30
0
 10
110.1750001872144
 20
56.35272631431224
 30
0
  0
SPLINE
  5
106
100
AcDbEntity
  8
Visible (ISO)
  6
ByLayer
 62
  256
370
   -1
100
AcDbSpline
210
0
220
0
230
0
 70
    8
 71
    2
 72
    6
 73
    3
 74
    0
 42
1e-007
 43
1e-007
 40
0
 40
0
 40
0
 40
1
 40
1
 40
1
 10
110.1750001872144
 20
56.35272631431224
 30
0
 10
110.4572224184432
 20
56.35272631431224
 30
0
 10
110.6651756414532
 20
56.14477309130137
 30
0
  0
LINE
  5
107
100
AcDbEntity
  8
Visible (ISO)
  6
ByLayer
 62
  256
370
   -1
100
AcDbLine
 10
110.5611990299491
 20
58.46196614770906
 11
110.5611990299491
 21
57.63015325566528
  0
SPLINE
  5
108
100
AcDbEntity
  8
Visible (ISO)
  6
ByLayer
 62
  256
370
   -1
100
AcDbSpline
210
0
220
0
230
0
 70
    8
 71
    2
 72
    6
 73
    3
 74
    0
 42
1e-007
 43
1e-007
 40
0
 40
0
 40
0
 40
1
 40
1
 40
1
 10
110.5611990299491
 20
57.63015325566528
 30
0
 10
110.5611990299491
 20
57.49646904087246
 30
0
 10
110.4720762200861
 20
57.40734623101065
 30
0
  0
SPLINE
  5
109
100
AcDbEntity
  8
Visible (ISO)
  6
ByLayer
 62
  256
370
   -1
100
AcDbSpline
210
0
220
0
230
0
 70
    8
 71
    2
 72
    6
 73
    3
 74
    0
 42
1e-007
 43
1e-007
 40
0
 40
0
 40
0
 40
1
 40
1
 40
1
 10
110.4720762200861
 20
57.40734623101065
 30
0
 10
110.3532458069373
 20
57.28851581786154
 30
0
 10
110.1898539888572
 20
57.28851581786154
 30
0
  0
SPLINE
  5
10A
100
AcDbEntity
  8
Visible (ISO)
  6
ByLayer
 62
  256
370
   -1
100
AcDbSpline
210
0
220
0
230
0
 70
    8
 71
    2
 72
    6
 73
    3
 74
    0
 42
1e-007
 43
1e-007
 40
0
 40
0
 40
0
 40
1
 40
1
 40
1
 10
110.1898539888572
 20
57.28851581786154
 30
0
 10
109.9967545674901
 20
57.28851581786154
 30
0
 10
109.8779241543413
 20
57.40734623101065
 30
0
  0
SPLINE
  5
10B
100
AcDbEntity
  8
Visible (ISO)
  6
ByLayer
 62
  256
370
   -1
100
AcDbSpline
210
0
220
0
230
0
 70
    8
 71
    2
 72
    6
 73
    3
 74
    0
 42
1e-007
 43
1e-007
 40
0
 40
0
 40
0
 40
1
 40
1
 40
1
 10
109.8779241543413
 20
57.40734623101065
 30
0
 10
109.7739475428363
 20
57.51132284251617
 30
0
 10
109.7739475428363
 20
57.65986085895258
 30
0
  0
LINE
  5
10C
100
AcDbEntity
  8
Visible (ISO)
  6
ByLayer
 62
  256
370
   -1
100
AcDbLine
 10
109.7739475428363
 20
57.65986085895258
 11
109.7739475428363
 21
58.46196614770906
  0
LINE
  5
10D
100
AcDbEntity
  8
Visible (ISO)
  6
ByLayer
 62
  256
370
   -1
100
AcDbLine
 10
109.7739475428363
 20
58.46196614770906
 11
110.5611990299491
 21
58.46196614770906
  0
LINE
  5
10E
100
AcDbEntity
  8
Visible (ISO)
  6
ByLayer
 62
  256
370
   -1
100
AcDbLine
 10
109.4917253116061
 20
58.46196614770906
 11
109.4917253116061
 21
57.70442226388337
  0
SPLINE
  5
10F
100
AcDbEntity
  8
Visible (ISO)
  6
ByLayer
 62
  256
370
   -1
100
AcDbSpline
210
0
220
0
230
0
 70
    8
 71
    2
 72
    6
 73
    3
 74
    0
 42
1e-007
 43
1e-007
 40
0
 40
0
 40
0
 40
1
 40
1
 40
1
 10
109.4917253116061
 20
57.70442226388337
 30
0
 10
109.4917253116061
 20
57.48161523922886
 30
0
 10
109.3580410968145
 20
57.34793102443604
 30
0
  0
SPLINE
  5
110
100
AcDbEntity
  8
Visible (ISO)
  6
ByLayer
 62
  256
370
   -1
100
AcDbSpline
210
0
220
0
230
0
 70
    8
 71
    2
 72
    6
 73
    3
 74
    0
 42
1e-007
 43
1e-007
 40
0
 40
0
 40
0
 40
1
 40
1
 40
1
 10
109.3580410968145
 20
57.34793102443604
 30
0
 10
109.2392106836652
 20
57.22910061128698
 30
0
 10
109.0312574606543
 20
57.22910061128698
 30
0
  0
SPLINE
  5
111
100
AcDbEntity
  8
Visible (ISO)
  6
ByLayer
 62
  256
370
   -1
100
AcDbSpline
210
0
220
0
230
0
 70
    8
 71
    2
 72
    6
 73
    3
 74
    0
 42
1e-007
 43
1e-007
 40
0
 40
0
 40
0
 40
1
 40
1
 40
1
 10
109.0312574606543
 20
57.22910061128698
 30
0
 10
108.8381580392863
 20
57.22910061128698
 30
0
 10
108.7044738244942
 20
57.36278482607975
 30
0
  0
SPLINE
  5
112
100
AcDbEntity
  8
Visible (ISO)
  6
ByLayer
 62
  256
370
   -1
100
AcDbSpline
210
0
220
0
230
0
 70
    8
 71
    2
 72
    6
 73
    3
 74
    0
 42
1e-007
 43
1e-007
 40
0
 40
0
 40
0
 40
1
 40
1
 40
1
 10
108.7044738244942
 20
57.36278482607975
 30
0
 10
108.5856434113441
 20
57.48161523922886
 30
0
 10
108.5856434113441
 20
57.70442226388337
 30
0
  0
LINE
  5
113
100
AcDbEntity
  8
Visible (ISO)
  6
ByLayer
 62
  256
370
   -1
100
AcDbLine
 10
108.5856434113441
 20
57.70442226388337
 11
108.5856434113441
 21
58.46196614770906
  0
LINE
  5
114
100
AcDbEntity
  8
Visible (ISO)
  6
ByLayer
 62
  256
370
   -1
100
AcDbLine
 10
108.5856434113441
 20
58.46196614770906
 11
109.4917253116061
 21
58.46196614770906
  0
SPLINE
  5
115
100
AcDbEntity
  8
Visible (ISO)
  6
ByLayer
 62
  256
370
   -1
100
AcDbSpline
210
0
220
0
230
0
 70
    8
 71
    2
 72
    6
 73
    3
 74
    0
 42
1e-007
 43
1e-007
 40
0
 40
0
 40
0
 40
1
 40
1
 40
1
 10
110.8434212611784
 20
57.61529945402157
 30
0
 10
110.8434212611784
 20
57.31822342114879
 30
0
 10
110.6503218398104
 20
57.12512399978158
 30
0
  0
SPLINE
  5
116
100
AcDbEntity
  8
Visible (ISO)
  6
ByLayer
 62
  256
370
   -1
100
AcDbSpline
210
0
220
0
230
0
 70
    8
 71
    2
 72
    6
 73
    3
 74
    0
 42
1e-007
 43
1e-007
 40
0
 40
0
 40
0
 40
1
 40
1
 40
1
 10
110.6503218398104
 20
57.12512399978158
 30
0
 10
110.4720762200861
 20
56.94687838005774
 30
0
 10
110.1750001872144
 20
56.94687838005774
 30
0
  0
SPLINE
  5
117
100
AcDbEntity
  8
Visible (ISO)
  6
ByLayer
 62
  256
370
   -1
100
AcDbSpline
210
0
220
0
230
0
 70
    8
 71
    2
 72
    6
 73
    3
 74
    0
 42
1e-007
 43
1e-007
 40
0
 40
0
 40
0
 40
1
 40
1
 40
1
 10
110.1750001872144
 20
56.94687838005774
 30
0
 10
109.9373393609155
 20
56.94687838005774
 30
0
 10
109.7739475428363
 20
57.11027019813787
 30
0
  0
SPLINE
  5
118
100
AcDbEntity
  8
Visible (ISO)
  6
ByLayer
 62
  256
370
   -1
100
AcDbSpline
210
0
220
0
230
0
 70
    8
 71
    2
 72
    6
 73
    3
 74
    0
 42
1e-007
 43
1e-007
 40
0
 40
0
 40
0
 40
1
 40
1
 40
1
 10
109.7739475428363
 20
57.11027019813787
 30
0
 10
109.6848247329742
 20
57.19939300799967
 30
0
 10
109.6402633280433
 20
57.33307722279244
 30
0
  0
SPLINE
  5
119
100
AcDbEntity
  8
Visible (ISO)
  6
ByLayer
 62
  256
370
   -1
100
AcDbSpline
210
0
220
0
230
0
 70
    8
 71
    2
 72
    6
 73
    3
 74
    0
 42
1e-007
 43
1e-007
 40
0
 40
0
 40
0
 40
1
 40
1
 40
1
 10
109.6402633280433
 20
57.33307722279244
 30
0
 10
109.5808481214683
 20
57.15483160306889
 30
0
 10
109.4768715099632
 20
57.05085499156326
 30
0
  0
SPLINE
  5
11A
100
AcDbEntity
  8
Visible (ISO)
  6
ByLayer
 62
  256
370
   -1
100
AcDbSpline
210
0
220
0
230
0
 70
    8
 71
    2
 72
    6
 73
    3
 74
    0
 42
1e-007
 43
1e-007
 40
0
 40
0
 40
0
 40
1
 40
1
 40
1
 10
109.4768715099632
 20
57.05085499156326
 30
0
 10
109.2986258902394
 20
56.87260937183964
 30
0
 10
109.0312574606543
 20
56.87260937183964
 30
0
  0
SPLINE
  5
11B
100
AcDbEntity
  8
Visible (ISO)
  6
ByLayer
 62
  256
370
   -1
100
AcDbSpline
210
0
220
0
230
0
 70
    8
 71
    2
 72
    6
 73
    3
 74
    0
 42
1e-007
 43
1e-007
 40
0
 40
0
 40
0
 40
1
 40
1
 40
1
 10
109.0312574606543
 20
56.87260937183964
 30
0
 10
108.7044738244942
 20
56.87260937183964
 30
0
 10
108.481666799839
 20
57.09541639649427
 30
0
  0
SPLINE
  5
11C
100
AcDbEntity
  8
Visible (ISO)
  6
ByLayer
 62
  256
370
   -1
100
AcDbSpline
210
0
220
0
230
0
 70
    8
 71
    2
 72
    6
 73
    3
 74
    0
 42
1e-007
 43
1e-007
 40
0
 40
0
 40
0
 40
1
 40
1
 40
1
 10
108.481666799839
 20
57.09541639649427
 30
0
 10
108.3034211801152
 20
57.27366201621788
 30
0
 10
108.3034211801152
 20
57.63015325566528
 30
0
  0
LINE
  5
11D
100
AcDbEntity
  8
Visible (ISO)
  6
ByLayer
 62
  256
370
   -1
100
AcDbLine
 10
108.3034211801152
 20
57.63015325566528
 11
108.3034211801152
 21
58.80360358551275
  0
LINE
  5
11E
100
AcDbEntity
  8
Visible (ISO)
  6
ByLayer
 62
  256
370
   -1
100
AcDbLine
 10
108.3034211801152
 20
58.80360358551275
 11
110.8434212611784
 21
58.80360358551275
  0
LINE
  5
11F
100
AcDbEntity
  8
Visible (ISO)
  6
ByLayer
 62
  256
370
   -1
100
AcDbLine
 10
110.8434212611784
 20
58.80360358551275
 11
110.8434212611784
 21
57.61529945402157
  0
ARC
  5
120
100
AcDbEntity
  8
Visible (ISO)
  6
ByLayer
 62
  256
370
   -1
100
AcDbCircle
 10
118.9096779092822
 20
65.40030437763818
 40
0.5416600000000038
100
AcDbArc
 50
0
 51
90
  0
LINE
  5
121
100
AcDbEntity
  8
Visible (ISO)
  6
ByLayer
 62
  256
370
   -1
100
AcDbLine
 10
119.4513379092825
 20
65.40030437763818
 11
119.4513379092825
 21
50.45642437763814
  0
LINE
  5
122
100
AcDbEntity
  8
Visible (ISO)
  6
ByLayer
 62
  256
370
   -1
100
AcDbLine
 10
118.9096779092822
 20
49.91476437763816
 11
115.8081179092835
 21
49.91476437763816
  0
LINE
  5
123
100
AcDbEntity
  8
Visible (ISO)
  6
ByLayer
 62
  256
370
   -1
100
AcDbLine
 10
115.2664579092831
 20
50.45642437763814
 11
115.2664579092831
 21
65.40030437763818
  0
ARC
  5
124
100
AcDbEntity
  8
Visible (ISO)
  6
ByLayer
 62
  256
370
   -1
100
AcDbCircle
 10
115.8081179092835
 20
65.40030437763818
 40
0.5416600000000082
100
AcDbArc
 50
90
 51
180
  0
ARC
  5
125
100
AcDbEntity
  8
Visible (ISO)
  6
ByLayer
 62
  256
370
   -1
100
AcDbCircle
 10
119.1322779092831
 20
65.94196437763816
 40
0.6381200000000132
100
AcDbArc
 50
0
 51
90
  0
LINE
  5
126
100
AcDbEntity
  8
Visible (ISO)
  6
ByLayer
 62
  256
370
   -1
100
AcDbLine
 10
119.7703979092823
 20
65.94196437763816
 11
119.7703979092841
 21
49.91476437763816
  0
LINE
  5
127
100
AcDbEntity
  8
Visible (ISO)
  6
ByLayer
 62
  256
370
   -1
100
AcDbLine
 10
119.1322779092831
 20
49.27664437763815
 11
115.585517909282
 21
49.27664437763815
  0
LINE
  5
128
100
AcDbEntity
  8
Visible (ISO)
  6
ByLayer
 62
  256
370
   -1
100
AcDbLine
 10
114.9473979092824
 20
49.91476437763805
 11
114.9473979092824
 21
65.94196437763816
  0
ARC
  5
129
100
AcDbEntity
  8
Visible (ISO)
  6
ByLayer
 62
  256
370
   -1
100
AcDbCircle
 10
115.585517909282
 20
65.94196437763816
 40
0.6381200000000044
100
AcDbArc
 50
90
 51
180
  0
LINE
  5
12A
100
AcDbEntity
  8
Visible (ISO)
  6
ByLayer
 62
  256
370
   -1
100
AcDbLine
 10
118.4904479092822
 20
50.52264687336037
 11
116.2273479092834
 21
50.52264687336037
  0
LINE
  5
12B
100
AcDbEntity
  8
Visible (ISO)
  6
ByLayer
 62
  256
370
   -1
100
AcDbLine
 10
116.2273479092834
 20
50.52264687336037
 11
116.2273479092834
 21
50.99752687336036
  0
LINE
  5
12C
100
AcDbEntity
  8
Visible (ISO)
  6
ByLayer
 62
  256
370
   -1
100
AcDbLine
 10
116.2273479092834
 20
50.99752687336036
 11
118.4904479092822
 21
50.99752687336036
  0
LINE
  5
12D
100
AcDbEntity
  8
Visible (ISO)
  6
ByLayer
 62
  256
370
   -1
100
AcDbLine
 10
118.4904479092822
 20
50.99752687336036
 11
118.4904479092822
 21
50.52264687336037
  0
LINE
  5
12E
100
AcDbEntity
  8
Visible (ISO)
  6
ByLayer
 62
  256
370
   -1
100
AcDbLine
 10
116.2273479092834
 20
64.02816188191593
 11
116.2273479092834
 21
64.56240188191595
  0
LINE
  5
12F
100
AcDbEntity
  8
Visible (ISO)
  6
ByLayer
 62
  256
370
   -1
100
AcDbLine
 10
116.2273479092834
 20
64.56240188191595
 11
118.0452479092821
 21
64.56240188191595
  0
LINE
  5
130
100
AcDbEntity
  8
Visible (ISO)
  6
ByLayer
 62
  256
370
   -1
100
AcDbLine
 10
118.0452479092821
 20
64.56240188191595
 11
118.0452479092821
 21
65.33408188191595
  0
LINE
  5
131
100
AcDbEntity
  8
Visible (ISO)
  6
ByLayer
 62
  256
370
   -1
100
AcDbLine
 10
118.0452479092821
 20
65.33408188191595
 11
118.4904479092822
 21
65.33408188191595
  0
LINE
  5
132
100
AcDbEntity
  8
Visible (ISO)
  6
ByLayer
 62
  256
370
   -1
100
AcDbLine
 10
118.4904479092822
 20
65.33408188191595
 11
118.4904479092822
 21
63.25648188191599
  0
LINE
  5
133
100
AcDbEntity
  8
Visible (ISO)
  6
ByLayer
 62
  256
370
   -1
100
AcDbLine
 10
118.4904479092822
 20
63.25648188191599
 11
118.0452479092821
 21
63.25648188191599
  0
LINE
  5
134
100
AcDbEntity
  8
Visible (ISO)
  6
ByLayer
 62
  256
370
   -1
100
AcDbLine
 10
118.0452479092821
 20
63.25648188191599
 11
118.0452479092821
 21
64.02816188191593
  0
LINE
  5
135
100
AcDbEntity
  8
Visible (ISO)
  6
ByLayer
 62
  256
370
   -1
100
AcDbLine
 10
118.0452479092821
 20
64.02816188191593
 11
116.2273479092834
 21
64.02816188191593
  0
ARC
  5
136
100
AcDbEntity
  8
Visible (ISO)
  6
ByLayer
 62
  256
370
   -1
100
AcDbCircle
 10
117.3588979092821
 20
54.92382188191596
 40
1.157519999999994
100
AcDbArc
 50
308.5505407907996
 51
246.5820184016458
  0
LINE
  5
137
100
AcDbEntity
  8
Visible (ISO)
  6
ByLayer
 62
  256
370
   -1
100
AcDbLine
 10
118.0802698547433
 20
54.01857326042978
 11
117.7723440430761
 21
54.40498892059759
  0
ELLIPSE
  5
138
100
AcDbEntity
  8
Visible (ISO)
  6
ByLayer
 62
  256
370
   -1
100
AcDbEllipse
 10
117.3588979092821
 20
54.92382188191596
 30
0
 11
-0.7271599999999988
 21
3e-016
 31
0
 40
0.8673469387755117
 41
2.175570797324401
 42
1.211449113914276
  0
LINE
  5
139
100
AcDbEntity
  8
Visible (ISO)
  6
ByLayer
 62
  256
370
   -1
100
AcDbLine
 10
117.1031824845042
 20
54.33340684517503
 11
116.8988579092831
 21
53.86164687336037
  0
LINE
  5
13A
100
AcDbEntity
  8
Visible (ISO)
  6
ByLayer
 62
  256
370
   -1
100
AcDbLine
 10
116.2273479092834
 20
51.97325687336036
 11
117.1362979092821
 21
51.97325687336036
  0
LINE
  5
13B
100
AcDbEntity
  8
Visible (ISO)
  6
ByLayer
 62
  256
370
   -1
100
AcDbLine
 10
117.1362979092821
 20
51.97325687336036
 11
117.1362979092821
 21
53.02689687336039
  0
LINE
  5
13C
100
AcDbEntity
  8
Visible (ISO)
  6
ByLayer
 62
  256
370
   -1
100
AcDbLine
 10
117.1362979092821
 20
53.02689687336039
 11
116.2273479092834
 21
53.02689687336039
  0
LINE
  5
13D
100
AcDbEntity
  8
Visible (ISO)
  6
ByLayer
 62
  256
370
   -1
100
AcDbLine
 10
116.2273479092834
 20
53.02689687336039
 11
116.2273479092834
 21
53.49806687336036
  0
LINE
  5
13E
100
AcDbEntity
  8
Visible (ISO)
  6
ByLayer
 62
  256
370
   -1
100
AcDbLine
 10
116.2273479092834
 20
53.49806687336036
 11
118.4904479092822
 21
53.49806687336036
  0
LINE
  5
13F
100
AcDbEntity
  8
Visible (ISO)
  6
ByLayer
 62
  256
370
   -1
100
AcDbLine
 10
118.4904479092822
 20
53.49806687336036
 11
118.4904479092822
 21
53.02689687336039
  0
LINE
  5
140
100
AcDbEntity
  8
Visible (ISO)
  6
ByLayer
 62
  256
370
   -1
100
AcDbLine
 10
118.4904479092822
 20
53.02689687336039
 11
117.5814979092822
 21
53.02689687336039
  0
LINE
  5
141
100
AcDbEntity
  8
Visible (ISO)
  6
ByLayer
 62
  256
370
   -1
100
AcDbLine
 10
117.5814979092822
 20
53.02689687336039
 11
117.5814979092822
 21
51.97325687336036
  0
LINE
  5
142
100
AcDbEntity
  8
Visible (ISO)
  6
ByLayer
 62
  256
370
   -1
100
AcDbLine
 10
117.5814979092822
 20
51.97325687336036
 11
118.4904479092822
 21
51.97325687336036
  0
LINE
  5
143
100
AcDbEntity
  8
Visible (ISO)
  6
ByLayer
 62
  256
370
   -1
100
AcDbLine
 10
118.4904479092822
 20
51.97325687336036
 11
118.4904479092822
 21
51.50208687336038
  0
LINE
  5
144
100
AcDbEntity
  8
Visible (ISO)
  6
ByLayer
 62
  256
370
   -1
100
AcDbLine
 10
118.4904479092822
 20
51.50208687336038
 11
116.2273479092834
 21
51.50208687336038
  0
LINE
  5
145
100
AcDbEntity
  8
Visible (ISO)
  6
ByLayer
 62
  256
370
   -1
100
AcDbLine
 10
116.2273479092834
 20
51.50208687336038
 11
116.2273479092834
 21
51.97325687336036
  0
LINE
  5
146
100
AcDbEntity
  8
Visible (ISO)
  6
ByLayer
 62
  256
370
   -1
100
AcDbLine
 10
116.2273479092834
 20
58.75996188191596
 11
116.2273479092834
 21
59.32293132871638
  0
LINE
  5
147
100
AcDbEntity
  8
Visible (ISO)
  6
ByLayer
 62
  256
370
   -1
100
AcDbLine
 10
116.2273479092834
 20
59.32293132871638
 11
117.3467888015481
 21
59.99355524076407
  0
LINE
  5
148
100
AcDbEntity
  8
Visible (ISO)
  6
ByLayer
 62
  256
370
   -1
100
AcDbLine
 10
117.3467888015481
 20
59.99355524076407
 11
116.8332292885931
 21
60.47398188191596
  0
LINE
  5
149
100
AcDbEntity
  8
Visible (ISO)
  6
ByLayer
 62
  256
370
   -1
100
AcDbLine
 10
116.8332292885931
 20
60.47398188191596
 11
116.2273479092834
 21
60.47398188191596
  0
LINE
  5
14A
100
AcDbEntity
  8
Visible (ISO)
  6
ByLayer
 62
  256
370
   -1
100
AcDbLine
 10
116.2273479092834
 20
60.47398188191596
 11
116.2273479092834
 21
60.94886188191595
  0
LINE
  5
14B
100
AcDbEntity
  8
Visible (ISO)
  6
ByLayer
 62
  256
370
   -1
100
AcDbLine
 10
116.2273479092834
 20
60.94886188191595
 11
118.4904479092822
 21
60.94886188191595
  0
LINE
  5
14C
100
AcDbEntity
  8
Visible (ISO)
  6
ByLayer
 62
  256
370
   -1
100
AcDbLine
 10
118.4904479092822
 20
60.94886188191595
 11
118.4904479092822
 21
60.47398188191596
  0
LINE
  5
14D
100
AcDbEntity
  8
Visible (ISO)
  6
ByLayer
 62
  256
370
   -1
100
AcDbLine
 10
118.4904479092822
 20
60.47398188191596
 11
117.5375339382342
 21
60.47398188191596
  0
LINE
  5
14E
100
AcDbEntity
  8
Visible (ISO)
  6
ByLayer
 62
  256
370
   -1
100
AcDbLine
 10
117.5375339382342
 20
60.47398188191596
 11
118.4904479092822
 21
59.59106126249634
  0
LINE
  5
14F
100
AcDbEntity
  8
Visible (ISO)
  6
ByLayer
 62
  256
370
   -1
100
AcDbLine
 10
118.4904479092822
 20
59.59106126249634
 11
118.4904479092822
 21
58.93062188191595
  0
LINE
  5
150
100
AcDbEntity
  8
Visible (ISO)
  6
ByLayer
 62
  256
370
   -1
100
AcDbLine
 10
118.4904479092822
 20
58.93062188191595
 11
117.7136506679032
 21
59.65036188191596
  0
LINE
  5
151
100
AcDbEntity
  8
Visible (ISO)
  6
ByLayer
 62
  256
370
   -1
100
AcDbLine
 10
117.7136506679032
 20
59.65036188191596
 11
116.2273479092834
 21
58.75996188191596
  0
LINE
  5
152
100
AcDbEntity
  8
Visible (ISO)
  6
ByLayer
 62
  256
370
   -1
100
AcDbLine
 10
117.9739879092833
 20
62.46996188191594
 11
117.1845279092824
 21
62.17814828455619
  0
LINE
  5
153
100
AcDbEntity
  8
Visible (ISO)
  6
ByLayer
 62
  256
370
   -1
100
AcDbLine
 10
117.1845279092824
 20
62.17814828455619
 11
117.1845279092824
 21
62.76177547927568
  0
LINE
  5
154
100
AcDbEntity
  8
Visible (ISO)
  6
ByLayer
 62
  256
370
   -1
100
AcDbLine
 10
117.1845279092824
 20
62.76177547927568
 11
117.9739879092833
 21
62.46996188191594
  0
LINE
  5
155
100
AcDbEntity
  8
Visible (ISO)
  6
ByLayer
 62
  256
370
   -1
100
AcDbLine
 10
116.7170679092821
 20
62.00535778950666
 11
116.7170679092821
 21
62.93456597432515
  0
LINE
  5
156
100
AcDbEntity
  8
Visible (ISO)
  6
ByLayer
 62
  256
370
   -1
100
AcDbLine
 10
116.7170679092821
 20
62.93456597432515
 11
116.2273479092834
 21
63.11558458818666
  0
LINE
  5
157
100
AcDbEntity
  8
Visible (ISO)
  6
ByLayer
 62
  256
370
   -1
100
AcDbLine
 10
116.2273479092834
 20
63.11558458818666
 11
116.2273479092834
 21
63.62748188191586
  0
LINE
  5
158
100
AcDbEntity
  8
Visible (ISO)
  6
ByLayer
 62
  256
370
   -1
100
AcDbLine
 10
116.2273479092834
 20
63.62748188191586
 11
118.4904479092822
 21
62.79644188191594
  0
LINE
  5
159
100
AcDbEntity
  8
Visible (ISO)
  6
ByLayer
 62
  256
370
   -1
100
AcDbLine
 10
118.4904479092822
 20
62.79644188191594
 11
118.4904479092822
 21
62.14348188191599
  0
LINE
  5
15A
100
AcDbEntity
  8
Visible (ISO)
  6
ByLayer
 62
  256
370
   -1
100
AcDbLine
 10
118.4904479092822
 20
62.14348188191599
 11
116.2273479092834
 21
61.31244188191596
  0
LINE
  5
15B
100
AcDbEntity
  8
Visible (ISO)
  6
ByLayer
 62
  256
370
   -1
100
AcDbLine
 10
116.2273479092834
 20
61.31244188191596
 11
116.2273479092834
 21
61.82433917564526
  0
LINE
  5
15C
100
AcDbEntity
  8
Visible (ISO)
  6
ByLayer
 62
  256
370
   -1
100
AcDbLine
 10
116.2273479092834
 20
61.82433917564526
 11
116.7170679092821
 21
62.00535778950666
  0
LINE
  5
15D
100
AcDbEntity
  8
Visible (ISO)
  6
ByLayer
 62
  256
370
   -1
100
AcDbLine
 10
117.1845279092824
 20
57.69391547927569
 11
117.9739879092833
 21
57.40210188191594
  0
LINE
  5
15E
100
AcDbEntity
  8
Visible (ISO)
  6
ByLayer
 62
  256
370
   -1
100
AcDbLine
 10
117.9739879092833
 20
57.40210188191594
 11
117.1845279092824
 21
57.11028828455613
  0
LINE
  5
15F
100
AcDbEntity
  8
Visible (ISO)
  6
ByLayer
 62
  256
370
   -1
100
AcDbLine
 10
117.1845279092824
 20
57.11028828455613
 11
117.1845279092824
 21
57.69391547927569
  0
LINE
  5
160
100
AcDbEntity
  8
Visible (ISO)
  6
ByLayer
 62
  256
370
   -1
100
AcDbLine
 10
116.7170679092821
 20
56.93749778950666
 11
116.7170679092821
 21
57.86670597432527
  0
LINE
  5
161
100
AcDbEntity
  8
Visible (ISO)
  6
ByLayer
 62
  256
370
   -1
100
AcDbLine
 10
116.7170679092821
 20
57.86670597432527
 11
116.2273479092834
 21
58.04772458818667
  0
LINE
  5
162
100
AcDbEntity
  8
Visible (ISO)
  6
ByLayer
 62
  256
370
   -1
100
AcDbLine
 10
116.2273479092834
 20
58.04772458818667
 11
116.2273479092834
 21
58.55962188191597
  0
LINE
  5
163
100
AcDbEntity
  8
Visible (ISO)
  6
ByLayer
 62
  256
370
   -1
100
AcDbLine
 10
116.2273479092834
 20
58.55962188191597
 11
118.4904479092822
 21
57.72858188191594
  0
LINE
  5
164
100
AcDbEntity
  8
Visible (ISO)
  6
ByLayer
 62
  256
370
   -1
100
AcDbLine
 10
118.4904479092822
 20
57.72858188191594
 11
118.4904479092822
 21
57.07562188191594
  0
LINE
  5
165
100
AcDbEntity
  8
Visible (ISO)
  6
ByLayer
 62
  256
370
   -1
100
AcDbLine
 10
118.4904479092822
 20
57.07562188191594
 11
116.2273479092834
 21
56.24458188191596
  0
LINE
  5
166
100
AcDbEntity
  8
Visible (ISO)
  6
ByLayer
 62
  256
370
   -1
100
AcDbLine
 10
116.2273479092834
 20
56.24458188191596
 11
116.2273479092834
 21
56.75647917564527
  0
LINE
  5
167
100
AcDbEntity
  8
Visible (ISO)
  6
ByLayer
 62
  256
370
   -1
100
AcDbLine
 10
116.2273479092834
 20
56.75647917564527
 11
116.7170679092821
 21
56.93749778950666
  0
LINE
  5
168
100
AcDbEntity
  8
Visible (ISO)
  6
ByLayer
 62
  256
370
   -1
100
AcDbLine
 10
110.9473978726834
 20
64.25494878872837
 11
109.5808481214683
 21
62.78442242600806
  0
LINE
  5
169
100
AcDbEntity
  8
Visible (ISO)
  6
ByLayer
 62
  256
370
   -1
100
AcDbLine
 10
109.5808481214683
 20
62.78442242600806
 11
108.2142983702544
 21
64.25494878872837
  0
LINE
  5
16A
100
AcDbEntity
  8
Visible (ISO)
  6
ByLayer
 62
  256
370
   -1
100
AcDbLine
 10
108.2142983702544
 20
64.25494878872837
 11
108.3628363866903
 21
64.40348680516468
  0
LINE
  5
16B
100
AcDbEntity
  8
Visible (ISO)
  6
ByLayer
 62
  256
370
   -1
100
AcDbLine
 10
108.3628363866903
 20
64.40348680516468
 11
109.5808481214683
 21
63.08149845888084
  0
LINE
  5
16C
100
AcDbEntity
  8
Visible (ISO)
  6
ByLayer
 62
  256
370
   -1
100
AcDbLine
 10
109.5808481214683
 20
63.08149845888084
 11
110.7988598562471
 21
64.40348680516468
  0
LINE
  5
16D
100
AcDbEntity
  8
Visible (ISO)
  6
ByLayer
 62
  256
370
   -1
100
AcDbLine
 10
110.7988598562471
 20
64.40348680516468
 11
110.9473978726834
 21
64.25494878872837
  0
LINE
  5
16E
100
AcDbEntity
  8
Visible (ISO)
  6
ByLayer
 62
  256
370
   -1
100
AcDbLine
 10
110.3829534102244
 20
60.25927614658934
 11
109.3580410968145
 21
59.87307730385476
  0
LINE
  5
16F
100
AcDbEntity
  8
Visible (ISO)
  6
ByLayer
 62
  256
370
   -1
100
AcDbLine
 10
109.3580410968145
 20
59.87307730385476
 11
109.3580410968145
 21
60.64547498932399
  0
LINE
  5
170
100
AcDbEntity
  8
Visible (ISO)
  6
ByLayer
 62
  256
370
   -1
100
AcDbLine
 10
109.3580410968145
 20
60.64547498932399
 11
110.3829534102244
 21
60.25927614658934
  0
LINE
  5
171
100
AcDbEntity
  8
Visible (ISO)
  6
ByLayer
 62
  256
370
   -1
100
AcDbLine
 10
110.8731288644651
 20
60.40781416302576
 11
110.8731288644651
 21
60.11073813015298
  0
LINE
  5
172
100
AcDbEntity
  8
Visible (ISO)
  6
ByLayer
 62
  256
370
   -1
100
AcDbLine
 10
110.8731288644651
 20
60.11073813015298
 11
108.3034211801152
 21
59.10067961838558
  0
LINE
  5
173
100
AcDbEntity
  8
Visible (ISO)
  6
ByLayer
 62
  256
370
   -1
100
AcDbLine
 10
108.3034211801152
 20
59.10067961838558
 11
108.3034211801152
 21
59.45717085783286
  0
LINE
  5
174
100
AcDbEntity
  8
Visible (ISO)
  6
ByLayer
 62
  256
370
   -1
100
AcDbLine
 10
108.3034211801152
 20
59.45717085783286
 11
109.0758188655852
 21
59.76910069234924
  0
LINE
  5
175
100
AcDbEntity
  8
Visible (ISO)
  6
ByLayer
 62
  256
370
   -1
100
AcDbLine
 10
109.0758188655852
 20
59.76910069234924
 11
109.0758188655852
 21
60.74945160082945
  0
LINE
  5
176
100
AcDbEntity
  8
Visible (ISO)
  6
ByLayer
 62
  256
370
   -1
100
AcDbLine
 10
109.0758188655852
 20
60.74945160082945
 11
108.3034211801152
 21
61.06138143534594
  0
LINE
  5
177
100
AcDbEntity
  8
Visible (ISO)
  6
ByLayer
 62
  256
370
   -1
100
AcDbLine
 10
108.3034211801152
 20
61.06138143534594
 11
108.3034211801152
 21
61.41787267479327
  0
LINE
  5
178
100
AcDbEntity
  8
Visible (ISO)
  6
ByLayer
 62
  256
370
   -1
100
AcDbLine
 10
108.3034211801152
 20
61.41787267479327
 11
110.8731288644651
 21
60.40781416302576
  0
CIRCLE
  5
179
100
AcDbEntity
  8
Visible (ISO)
  6
ByLayer
 62
  256
370
   -1
100
AcDbCircle
 10
69.77067790928839
 20
24.58008437763817
 40
2.5
  0
CIRCLE
  5
17A
100
AcDbEntity
  8
Visible (ISO)
  6
ByLayer
 62
  256
370
   -1
100
AcDbCircle
 10
121.7706779092884
 20
24.59754476238396
 40
2.5
  0
CIRCLE
  5
17B
100
AcDbEntity
  8
Visible (ISO)
  6
ByLayer
 62
  256
370
   -1
100
AcDbCircle
 10
63.7706779092893
 20
170.5975447623841
 40
2.5
  0
CIRCLE
  5
17C
100
AcDbEntity
  8
Visible (ISO)
  6
ByLayer
 62
  256
370
   -1
100
AcDbCircle
 10
127.7706779092893
 20
170.5975447623841
 40
2.5
  0
CIRCLE
  5
17D
100
AcDbEntity
  8
Visible (ISO)
  6
ByLayer
 62
  256
370
   -1
100
AcDbCircle
 10
127.7706779092893
 20
170.5975447623841
 40
1
  0
CIRCLE
  5
17E
100
AcDbEntity
  8
Visible (ISO)
  6
ByLayer
 62
  256
370
   -1
100
AcDbCircle
 10
127.7706779092893
 20
170.5975447623841
 40
1.499999999999998
  0
CIRCLE
  5
17F
100
AcDbEntity
  8
Visible (ISO)
  6
ByLayer
 62
  256
370
   -1
100
AcDbCircle
 10
69.77067790928839
 20
24.59754476238396
 40
1
  0
CIRCLE
  5
180
100
AcDbEntity
  8
Visible (ISO)
  6
ByLayer
 62
  256
370
   -1
100
AcDbCircle
 10
69.77067790928839
 20
24.59754476238396
 40
1.5
  0
CIRCLE
  5
181
100
AcDbEntity
  8
Visible (ISO)
  6
ByLayer
 62
  256
370
   -1
100
AcDbCircle
 10
121.7706779092884
 20
24.59754476238396
 40
1
  0
CIRCLE
  5
182
100
AcDbEntity
  8
Visible (ISO)
  6
ByLayer
 62
  256
370
   -1
100
AcDbCircle
 10
121.7706779092884
 20
24.59754476238396
 40
1.499999999999998
  0
CIRCLE
  5
183
100
AcDbEntity
  8
Visible (ISO)
  6
ByLayer
 62
  256
370
   -1
100
AcDbCircle
 10
63.77067790928521
 20
160.5975447623841
 40
0.95
  0
CIRCLE
  5
184
100
AcDbEntity
  8
Visible (ISO)
  6
ByLayer
 62
  256
370
   -1
100
AcDbCircle
 10
63.77067790928521
 20
160.5975447623841
 40
1.45
  0
CIRCLE
  5
185
100
AcDbEntity
  8
Visible (ISO)
  6
ByLayer
 62
  256
370
   -1
100
AcDbCircle
 10
127.7706779092852
 20
160.5975447623841
 40
0.95
  0
CIRCLE
  5
186
100
AcDbEntity
  8
Visible (ISO)
  6
ByLayer
 62
  256
370
   -1
100
AcDbCircle
 10
127.7706779092852
 20
160.5975447623841
 40
1.449999999999998
  0
CIRCLE
  5
187
100
AcDbEntity
  8
Visible (ISO)
  6
ByLayer
 62
  256
370
   -1
100
AcDbCircle
 10
63.77067790928521
 20
94.09754476238408
 40
0.95
  0
CIRCLE
  5
188
100
AcDbEntity
  8
Visible (ISO)
  6
ByLayer
 62
  256
370
   -1
100
AcDbCircle
 10
63.77067790928521
 20
94.09754476238408
 40
1.45
  0
CIRCLE
  5
189
100
AcDbEntity
  8
Visible (ISO)
  6
ByLayer
 62
  256
370
   -1
100
AcDbCircle
 10
127.7706779092852
 20
94.09754476238408
 40
0.9499999999999996
  0
CIRCLE
  5
18A
100
AcDbEntity
  8
Visible (ISO)
  6
ByLayer
 62
  256
370
   -1
100
AcDbCircle
 10
127.7706779092852
 20
94.09754476238408
 40
1.449999999999997
  0
CIRCLE
  5
18B
100
AcDbEntity
  8
Visible (ISO)
  6
ByLayer
 62
  256
370
   -1
100
AcDbCircle
 10
127.7706779092852
 20
34.59754476238396
 40
0.9499999999999996
  0
CIRCLE
  5
18C
100
AcDbEntity
  8
Visible (ISO)
  6
ByLayer
 62
  256
370
   -1
100
AcDbCircle
 10
127.7706779092852
 20
34.59754476238396
 40
1.449999999999997
  0
CIRCLE
  5
18D
100
AcDbEntity
  8
Visible (ISO)
  6
ByLayer
 62
  256
370
   -1
100
AcDbCircle
 10
63.77067790928521
 20
34.59754476238396
 40
0.95
  0
CIRCLE
  5
18E
100
AcDbEntity
  8
Visible (ISO)
  6
ByLayer
 62
  256
370
   -1
100
AcDbCircle
 10
63.77067790928521
 20
34.59754476238396
 40
1.45
  0
CIRCLE
  5
18F
100
AcDbEntity
  8
Visible (ISO)
  6
ByLayer
 62
  256
370
   -1
100
AcDbCircle
 10
63.7706779092893
 20
170.5975447623841
 40
1
  0
CIRCLE
  5
190
100
AcDbEntity
  8
Visible (ISO)
  6
ByLayer
 62
  256
370
   -1
100
AcDbCircle
 10
63.7706779092893
 20
170.5975447623841
 40
1.5
  0
CIRCLE
  5
191
100
AcDbEntity
  8
Visible (ISO)
  6
ByLayer
 62
  256
370
   -1
100
AcDbCircle
 10
63.77067790928521
 20
160.5975447623841
 40
2.399999999999999
  0
CIRCLE
  5
192
100
AcDbEntity
  8
Visible (ISO)
  6
ByLayer
 62
  256
370
   -1
100
AcDbCircle
 10
127.7706779092852
 20
160.5975447623841
 40
2.399999999999999
  0
CIRCLE
  5
193
100
AcDbEntity
  8
Visible (ISO)
  6
ByLayer
 62
  256
370
   -1
100
AcDbCircle
 10
63.77067790928521
 20
94.09754476238408
 40
2.399999999999999
  0
CIRCLE
  5
194
100
AcDbEntity
  8
Visible (ISO)
  6
ByLayer
 62
  256
370
   -1
100
AcDbCircle
 10
127.7706779092852
 20
94.09754476238408
 40
2.399999999999999
  0
CIRCLE
  5
195
100
AcDbEntity
  8
Visible (ISO)
  6
ByLayer
 62
  256
370
   -1
100
AcDbCircle
 10
127.7706779092852
 20
34.59754476238396
 40
2.399999999999999
  0
CIRCLE
  5
196
100
AcDbEntity
  8
Visible (ISO)
  6
ByLayer
 62
  256
370
   -1
100
AcDbCircle
 10
63.77067790928521
 20
34.59754476238396
 40
2.399999999999999
  0
LINE
  5
197
100
AcDbEntity
  8
Visible (ISO)
  6
ByLayer
 62
  256
370
   -1
100
AcDbLine
 10
66.22067790928912
 20
179.597544762384
 11
66.22067790928912
 21
181.597544762384
  0
LINE
  5
198
100
AcDbEntity
  8
Visible (ISO)
  6
ByLayer
 62
  256
370
   -1
100
AcDbLine
 10
66.22067790928321
 20
176.4657974522124
 11
66.22067790928912
 21
176.797544762384
  0
LINE
  5
199
100
AcDbEntity
  8
Visible (ISO)
  6
ByLayer
 62
  256
370
   -1
100
AcDbLine
 10
66.22067790928912
 20
176.797544762384
 11
66.22067790928912
 21
177.9975447623841
  0
LINE
  5
19A
100
AcDbEntity
  8
Visible (ISO)
  6
ByLayer
 62
  256
370
   -1
100
AcDbLine
 10
66.22067790928321
 20
181.2657974522124
 11
125.3206779092831
 21
181.2657974522124
  0
LINE
  5
19B
100
AcDbEntity
  8
Visible (ISO)
  6
ByLayer
 62
  256
370
   -1
100
AcDbLine
 10
125.3206779092831
 20
179.597544762384
 11
66.22067790928321
 21
179.597544762384
  0
LINE
  5
19C
100
AcDbEntity
  8
Visible (ISO)
  6
ByLayer
 62
  256
370
   -1
100
AcDbLine
 10
125.320677909289
 20
181.597544762384
 11
125.320677909289
 21
179.597544762384
  0
LINE
  5
19D
100
AcDbEntity
  8
Visible (ISO)
  6
ByLayer
 62
  256
370
   -1
100
AcDbLine
 10
125.320677909289
 20
176.797544762384
 11
125.3206779092831
 21
176.4657974522124
  0
LINE
  5
19E
100
AcDbEntity
  8
Visible (ISO)
  6
ByLayer
 62
  256
370
   -1
100
AcDbLine
 10
125.320677909289
 20
177.9975447623841
 11
125.320677909289
 21
176.797544762384
  0
LINE
  5
19F
100
AcDbEntity
  8
Visible (ISO)
  6
ByLayer
 62
  256
370
   -1
100
AcDbLine
 10
125.3206779092831
 20
176.4657974522124
 11
66.22067790928321
 21
176.4657974522124
  0
LINE
  5
1A0
100
AcDbEntity
  8
Visible (ISO)
  6
ByLayer
 62
  256
370
   -1
100
AcDbLine
 10
66.22067790928321
 20
177.9975447623841
 11
125.3206779092831
 21
177.9975447623841
  0
LINE
  5
1A1
100
AcDbEntity
  8
Visible (ISO)
  6
ByLayer
 62
  256
370
   -1
100
AcDbLine
 10
126.8956779092893
 20
177.9975447623841
 11
125.320677909289
 21
177.9975447623841
  0
LINE
  5
1A2
100
AcDbEntity
  8
Visible (ISO)
  6
ByLayer
 62
  256
370
   -1
100
AcDbLine
 10
66.22067790928912
 20
177.9975447623841
 11
64.6456779092893
 21
177.9975447623841
  0
LINE
  5
1A3
100
AcDbEntity
  8
Visible (ISO)
  6
ByLayer
 62
  256
370
   -1
100
AcDbLine
 10
64.6456779092893
 20
177.9975447623841
 11
64.6456779092893
 21
179.597544762384
  0
LINE
  5
1A4
100
AcDbEntity
  8
Visible (ISO)
  6
ByLayer
 62
  256
370
   -1
100
AcDbLine
 10
64.6456779092893
 20
179.597544762384
 11
66.22067790928912
 21
179.597544762384
  0
LINE
  5
1A5
100
AcDbEntity
  8
Visible (ISO)
  6
ByLayer
 62
  256
370
   -1
100
AcDbLine
 10
125.320677909289
 20
179.597544762384
 11
126.8956779092893
 21
179.597544762384
  0
LINE
  5
1A6
100
AcDbEntity
  8
Visible (ISO)
  6
ByLayer
 62
  256
370
   -1
100
AcDbLine
 10
126.8956779092893
 20
179.597544762384
 11
126.8956779092893
 21
177.9975447623841
  0
LINE
  5
1A7
100
AcDbEntity
  8
Visible (ISO)
  6
ByLayer
 62
  256
370
   -1
100
AcDbLine
 10
125.320677909289
 20
181.597544762384
 11
125.7706779092893
 21
181.597544762384
  0
LINE
  5
1A8
100
AcDbEntity
  8
Visible (ISO)
  6
ByLayer
 62
  256
370
   -1
100
AcDbLine
 10
65.7706779092893
 20
181.597544762384
 11
66.22067790928912
 21
181.597544762384
  0
LINE
  5
1A9
100
AcDbEntity
  8
Visible (ISO)
  6
ByLayer
 62
  256
370
   -1
100
AcDbLine
 10
55.77067790928839
 20
171.5975447623841
 11
55.77067790928839
 21
26.59754476238396
  0
LINE
  5
1AA
100
AcDbEntity
  8
Visible (ISO)
  6
ByLayer
 62
  256
370
   -1
100
AcDbLine
 10
135.7706779092893
 20
171.5975447623841
 11
135.7706779092893
 21
26.59754476238396
  0
ARC
  5
1AB
100
AcDbEntity
  8
Visible (ISO)
  6
ByLayer
 62
  256
370
   -1
100
AcDbCircle
 10
125.7706779092893
 20
26.59754476238396
 40
8.999999999999995
100
AcDbArc
 50
270
 51
0
  0
LINE
  5
1AC
100
AcDbEntity
  8
Visible (ISO)
  6
ByLayer
 62
  256
370
   -1
100
AcDbLine
 10
125.7706779092893
 20
17.59754476238396
 11
65.7706779092893
 21
17.59754476238408
  0
ARC
  5
1AD
100
AcDbEntity
  8
Visible (ISO)
  6
ByLayer
 62
  256
370
   -1
100
AcDbCircle
 10
65.7706779092893
 20
26.59754476238396
 40
9.000000000000004
100
AcDbArc
 50
180
 51
270
  0
LINE
  5
1AE
100
AcDbEntity
  8
Visible (ISO)
  6
ByLayer
 62
  256
370
   -1
100
AcDbLine
 10
56.7706779092893
 20
26.59754476238396
 11
56.7706779092893
 21
169.4975447623839
  0
ARC
  5
1AF
100
AcDbEntity
  8
Visible (ISO)
  6
ByLayer
 62
  256
370
   -1
100
AcDbCircle
 10
56.87067790928921
 20
169.4975447623839
 40
0.1000000000000045
100
AcDbArc
 50
90
 51
180
  0
LINE
  5
1B0
100
AcDbEntity
  8
Visible (ISO)
  6
ByLayer
 62
  256
370
   -1
100
AcDbLine
 10
56.87067790928921
 20
169.597544762384
 11
58.07067790928812
 21
169.597544762384
  0
ARC
  5
1B1
100
AcDbEntity
  8
Visible (ISO)
  6
ByLayer
 62
  256
370
   -1
100
AcDbCircle
 10
58.07067790928812
 20
169.4975447623839
 40
0.1000000000000334
100
AcDbArc
 50
0
 51
90
  0
LINE
  5
1B2
100
AcDbEntity
  8
Visible (ISO)
  6
ByLayer
 62
  256
370
   -1
100
AcDbLine
 10
58.1706779092894
 20
169.4975447623839
 11
58.1706779092894
 21
26.59754476238396
  0
ARC
  5
1B3
100
AcDbEntity
  8
Visible (ISO)
  6
ByLayer
 62
  256
370
   -1
100
AcDbCircle
 10
65.7706779092893
 20
26.59754476238396
 40
7.599999999999996
100
AcDbArc
 50
180
 51
270
  0
LINE
  5
1B4
100
AcDbEntity
  8
Visible (ISO)
  6
ByLayer
 62
  256
370
   -1
100
AcDbLine
 10
65.7706779092893
 20
18.99754476238405
 11
125.7706779092893
 21
18.99754476238397
  0
ARC
  5
1B5
100
AcDbEntity
  8
Visible (ISO)
  6
ByLayer
 62
  256
370
   -1
100
AcDbCircle
 10
125.7706779092893
 20
26.59754476238396
 40
7.59999999999998
100
AcDbArc
 50
270
 51
0
  0
LINE
  5
1B6
100
AcDbEntity
  8
Visible (ISO)
  6
ByLayer
 62
  256
370
   -1
100
AcDbLine
 10
133.3706779092883
 20
26.59754476238396
 11
133.3706779092883
 21
169.4975447623839
  0
ARC
  5
1B7
100
AcDbEntity
  8
Visible (ISO)
  6
ByLayer
 62
  256
370
   -1
100
AcDbCircle
 10
133.4706779092891
 20
169.4975447623839
 40
0.1000000000000156
100
AcDbArc
 50
90.00000000003907
 51
180
  0
LINE
  5
1B8
100
AcDbEntity
  8
Visible (ISO)
  6
ByLayer
 62
  256
370
   -1
100
AcDbLine
 10
133.4706779092891
 20
169.5975447623841
 11
134.670677909288
 21
169.597544762384
  0
ARC
  5
1B9
100
AcDbEntity
  8
Visible (ISO)
  6
ByLayer
 62
  256
370
   -1
100
AcDbCircle
 10
134.670677909288
 20
169.4975447623839
 40
0.1000000000000067
100
AcDbArc
 50
0
 51
90
  0
LINE
  5
1BA
100
AcDbEntity
  8
Visible (ISO)
  6
ByLayer
 62
  256
370
   -1
100
AcDbLine
 10
134.7706779092884
 20
169.4975447623839
 11
134.7706779092884
 21
26.59754476238396
  0
ARC
  5
1BB
100
AcDbEntity
  8
Visible (ISO)
  6
ByLayer
 62
  256
370
   -1
100
AcDbCircle
 10
65.7706779092893
 20
171.5975447623841
 40
9.999999999999996
100
AcDbArc
 50
90
 51
180
  0
ARC
  5
1BC
100
AcDbEntity
  8
Visible (ISO)
  6
ByLayer
 62
  256
370
   -1
100
AcDbCircle
 10
125.7706779092893
 20
171.5975447623841
 40
9.999999999999982
100
AcDbArc
 50
0
 51
90
  0
LINE
  5
1BD
100
AcDbEntity
  8
Centerline (ISO)
  6
CONTINUOUS
 62
  256
370
   -1
100
AcDbLine
 10
95.77067790928339
 20
186.2657974522124
 11
95.7706779092893
 21
11.59754476238408
  0
LINE
  5
1BE
100
AcDbEntity
  8
Center Mark (ISO)
  6
CONTINUOUS
 62
  256
370
   -1
100
AcDbLine
 10
69.72067790928503
 20
34.59754476238396
 11
57.82067790928539
 21
34.59754476238396
  0
LINE
  5
1BF
100
AcDbEntity
  8
Center Mark (ISO)
  6
CONTINUOUS
 62
  256
370
   -1
100
AcDbLine
 10
63.77067790928521
 20
40.54754476238395
 11
63.77067790928521
 21
28.64754476238409
  0
LINE
  5
1C0
100
AcDbEntity
  8
Center Mark (ISO)
  6
CONTINUOUS
 62
  256
370
   -1
100
AcDbLine
 10
75.77067790928839
 20
24.59754476238396
 11
63.7706779092893
 21
24.59754476238396
  0
LINE
  5
1C1
100
AcDbEntity
  8
Center Mark (ISO)
  6
CONTINUOUS
 62
  256
370
   -1
100
AcDbLine
 10
69.77067790928839
 20
30.59754476238408
 11
69.77067790928839
 21
18.59754476238396
  0
LINE
  5
1C2
100
AcDbEntity
  8
Center Mark (ISO)
  6
CONTINUOUS
 62
  256
370
   -1
100
AcDbLine
 10
127.7706779092893
 20
24.59754476238396
 11
115.7706779092884
 21
24.59754476238396
  0
LINE
  5
1C3
100
AcDbEntity
  8
Center Mark (ISO)
  6
CONTINUOUS
 62
  256
370
   -1
100
AcDbLine
 10
121.7706779092884
 20
30.59754476238408
 11
121.7706779092884
 21
18.59754476238396
  0
LINE
  5
1C4
100
AcDbEntity
  8
Center Mark (ISO)
  6
CONTINUOUS
 62
  256
370
   -1
100
AcDbLine
 10
133.720677909285
 20
34.59754476238396
 11
121.8206779092854
 21
34.59754476238396
  0
LINE
  5
1C5
100
AcDbEntity
  8
Center Mark (ISO)
  6
CONTINUOUS
 62
  256
370
   -1
100
AcDbLine
 10
127.7706779092852
 20
40.54754476238395
 11
127.7706779092852
 21
28.64754476238409
  0
LINE
  5
1C6
100
AcDbEntity
  8
Center Mark (ISO)
  6
CONTINUOUS
 62
  256
370
   -1
100
AcDbLine
 10
133.720677909285
 20
94.09754476238408
 11
121.8206779092854
 21
94.09754476238408
  0
LINE
  5
1C7
100
AcDbEntity
  8
Center Mark (ISO)
  6
CONTINUOUS
 62
  256
370
   -1
100
AcDbLine
 10
127.7706779092852
 20
100.0475447623841
 11
127.7706779092852
 21
88.14754476238409
  0
LINE
  5
1C8
100
AcDbEntity
  8
Center Mark (ISO)
  6
CONTINUOUS
 62
  256
370
   -1
100
AcDbLine
 10
69.72067790928503
 20
94.09754476238408
 11
57.82067790928539
 21
94.09754476238408
  0
LINE
  5
1C9
100
AcDbEntity
  8
Center Mark (ISO)
  6
CONTINUOUS
 62
  256
370
   -1
100
AcDbLine
 10
63.77067790928521
 20
100.0475447623841
 11
63.77067790928521
 21
88.14754476238409
  0
LINE
  5
1CA
100
AcDbEntity
  8
Center Mark (ISO)
  6
CONTINUOUS
 62
  256
370
   -1
100
AcDbLine
 10
69.72067790928503
 20
160.5975447623841
 11
57.82067790928539
 21
160.5975447623841
  0
LINE
  5
1CB
100
AcDbEntity
  8
Center Mark (ISO)
  6
CONTINUOUS
 62
  256
370
   -1
100
AcDbLine
 10
63.77067790928521
 20
166.5475447623841
 11
63.77067790928521
 21
154.6475447623841
  0
LINE
  5
1CC
100
AcDbEntity
  8
Center Mark (ISO)
  6
CONTINUOUS
 62
  256
370
   -1
100
AcDbLine
 10
69.77067790928839
 20
170.5975447623841
 11
57.77067790928839
 21
170.5975447623841
  0
LINE
  5
1CD
100
AcDbEntity
  8
Center Mark (ISO)
  6
CONTINUOUS
 62
  256
370
   -1
100
AcDbLine
 10
63.7706779092893
 20
176.597544762384
 11
63.7706779092893
 21
164.5975447623841
  0
LINE
  5
1CE
100
AcDbEntity
  8
Center Mark (ISO)
  6
CONTINUOUS
 62
  256
370
   -1
100
AcDbLine
 10
133.7706779092884
 20
170.5975447623841
 11
121.7706779092884
 21
170.5975447623841
  0
LINE
  5
1CF
100
AcDbEntity
  8
Center Mark (ISO)
  6
CONTINUOUS
 62
  256
370
   -1
100
AcDbLine
 10
127.7706779092893
 20
176.597544762384
 11
127.7706779092893
 21
164.5975447623841
  0
LINE
  5
1D0
100
AcDbEntity
  8
Center Mark (ISO)
  6
CONTINUOUS
 62
  256
370
   -1
100
AcDbLine
 10
133.720677909285
 20
160.5975447623841
 11
121.8206779092854
 21
160.5975447623841
  0
LINE
  5
1D1
100
AcDbEntity
  8
Center Mark (ISO)
  6
CONTINUOUS
 62
  256
370
   -1
100
AcDbLine
 10
127.7706779092852
 20
166.5475447623841
 11
127.7706779092852
 21
154.6475447623841
  0
ARC
  5
1D2
100
AcDbEntity
  8
Visible (ISO)
  6
ByLayer
 62
  256
370
   -1
100
AcDbCircle
 10
119.0967096597374
 20
52.23970150794955
 40
0.5416600000000127
100
AcDbArc
 50
270.000000000013
 51
0
  0
ARC
  5
1D3
100
AcDbEntity
  8
Visible (ISO)
  6
ByLayer
 62
  256
370
   -1
100
AcDbCircle
 10
115.9951496597387
 20
52.23970150794955
 40
0.5416600000000038
100
AcDbArc
 50
180
 51
270
  0
ARC
  5
1D4
100
AcDbEntity
  8
Visible (ISO)
  6
ByLayer
 62
  256
370
   -1
100
AcDbCircle
 10
119.3193096597384
 20
51.69804150794957
 40
0.6381200000009813
100
AcDbArc
 50
270
 51
0
  0
ARC
  5
1D5
100
AcDbEntity
  8
Visible (ISO)
  6
ByLayer
 62
  256
370
   -1
100
AcDbCircle
 10
115.7725496597373
 20
51.69804150794945
 40
0.6381200000000132
100
AcDbArc
 50
180
 51
270
  0
ARC
  5
1D6
100
AcDbEntity
  8
sticker
  6
ByLayer
 62
  256
370
   -1
100
AcDbCircle
 10
125.271
 20
27.0975
 40
1.500000000000004
100
AcDbArc
 50
270
 51
0
  0
LINE
  5
1D7
100
AcDbEntity
  8
Centerline (ISO)
  6
ByLayer
 62
  256
370
   -1
100
AcDbLine
 10
115.8081179092835
 20
65.94196437763816
 11
118.9096779092822
 21
65.94196437763816
  0
LINE
  5
1D8
100
AcDbEntity
  8
Centerline (ISO)
  6
ByLayer
 62
  256
370
   -1
100
AcDbLine
 10
115.585517909282
 20
66.58008437763817
 11
119.1322779092831
 21
66.58008437763817
  0
LINE
  5
1D9
100
AcDbEntity
  8
Centerline (ISO)
  6
ByLayer
 62
  256
370
   -1
100
AcDbLine
 10
121.3104837747355
 20
32.82031825235706
 11
95.28895422707045
 21
58.84184780002199
  0
LINE
  5
1DA
100
AcDbEntity
  8
Centerline (ISO)
  6
ByLayer
 62
  256
370
   -1
100
AcDbLine
 10
95.77067790928913
 20
58.3601241178033
 11
60.41533884996176
 21
23.00478505847592
  0
LINE
  5
1DB
100
AcDbEntity
  8
Centerline (ISO)
  6
ByLayer
 62
  256
370
   -1
100
AcDbLine
 10
121.3104837747355
 20
32.82031825235706
 11
70.3104837747355
 21
32.82031825235706
  0
INSERT
  5
1DC
100
AcDbEntity
  8
controls
  6
ByLayer
 62
  256
370
   -1
100
AcDbBlockReference
  2
Switch
 10
115.8870999999993
 20
53.19650000000003
 30
0
 41
1
 42
1
 43
0
 50
0
 70
    1
 71
    1
 44
0
 45
0
  0
INSERT
  5
1DD
100
AcDbEntity
  8
controls
  6
ByLayer
 62
  256
370
   -1
100
AcDbBlockReference
  2
Switch
 10
139.956712817929
 20
42.62276278325036
 30
0
 41
1
 42
1
 43
0
 50
45
 70
    1
 71
    1
 44
0
 45
0
  0
INSERT
  5
1DE
100
AcDbEntity
  8
controls
  6
ByLayer
 62
  256
370
   -1
100
AcDbBlockReference
  2
Switch
 10
80.1129283056288
 20
14.17408920916353
 30
0
 41
1
 42
1
 43
0
 50
315
 70
    1
 71
    1
 44
0
 45
0
  0
INSERT
  5
1DF
100
AcDbEntity
  8
controls
  6
ByLayer
 62
  256
370
   -1
100
AcDbBlockReference
  2
pot
 10
95.77067790928913
 20
100.3659586515458
 30
0
 41
1
 42
1
 43
0
 50
0
 70
    1
 71
    1
 44
0
 45
0
  0
INSERT
  5
1E0
100
AcDbEntity
  8
controls
  6
ByLayer
 62
  256
370
   -1
100
AcDbBlockReference
  2
Switch
 10
115.8870999999993
 20
144.6093244966069
 30
0
 41
1
 42
1
 43
0
 50
0
 70
    1
 71
    1
 44
0
 45
0
  0
LWPOLYLINE
  5
1E1
100
AcDbEntity
  8
Innards
  6
ByLayer
 62
  256
370
   -1
100
AcDbPolyline
 90
    4
 70
    1
 43
0
 10
121.9419525065966
 20
114.3359718557612
 10
121.9419525065966
 20
148.3359718557612
 10
67.94195250659658
 20
148.3359718557612
 10
67.94195250659655
 20
114.3359718557612
  0
LWPOLYLINE
  5
1E2
100
AcDbEntity
  8
Innards
  6
ByLayer
 62
  256
370
   -1
100
AcDbPolyline
 90
    4
 70
    1
 43
0
 10
106.860158311346
 20
109.0589270008799
 10
130.860158311346
 20
109.0589270008799
 10
130.860158311346
 20
167.0589270008799
 10
106.860158311346
 20
167.0589270008799
  0
LINE
  5
1E3
100
AcDbEntity
  8
Centerline (ISO)
  6
CONTINUOUS
 62
  256
370
   -1
100
AcDbLine
 10
225.6263271855011
 20
213.7227261260009
 11
225.6263271855011
 21
49.72272612600088
  0
LINE
  5
1E4
100
AcDbEntity
  8
Center Mark (ISO)
  6
CONTINUOUS
 62
  256
370
   -1
100
AcDbLine
 10
199.8763271855024
 20
193.722726126001
 11
187.3763271855011
 21
193.722726126001
  0
LINE
  5
1E5
100
AcDbEntity
  8
Center Mark (ISO)
  6
CONTINUOUS
 62
  256
370
   -1
100
AcDbLine
 10
193.6263271855011
 20
199.972726126001
 11
193.6263271855011
 21
187.472726126001
  0
LINE
  5
1E6
100
AcDbEntity
  8
Center Mark (ISO)
  6
CONTINUOUS
 62
  256
370
   -1
100
AcDbLine
 10
199.8763271855024
 20
127.2227261260008
 11
187.3763271855011
 21
127.2227261260008
  0
LINE
  5
1E7
100
AcDbEntity
  8
Center Mark (ISO)
  6
CONTINUOUS
 62
  256
370
   -1
100
AcDbLine
 10
193.6263271855011
 20
133.4727261260008
 11
193.6263271855011
 21
120.9727261260008
  0
LINE
  5
1E8
100
AcDbEntity
  8
Center Mark (ISO)
  6
CONTINUOUS
 62
  256
370
   -1
100
AcDbLine
 10
199.8763271855024
 20
67.72272612600088
 11
187.3763271855011
 21
67.72272612600088
  0
LINE
  5
1E9
100
AcDbEntity
  8
Center Mark (ISO)
  6
CONTINUOUS
 62
  256
370
   -1
100
AcDbLine
 10
193.6263271855011
 20
73.97272612600088
 11
193.6263271855011
 21
61.47272612600088
  0
LINE
  5
1EA
100
AcDbEntity
  8
Center Mark (ISO)
  6
CONTINUOUS
 62
  256
370
   -1
100
AcDbLine
 10
263.8763271855024
 20
67.72272612600088
 11
251.3763271855011
 21
67.72272612600088
  0
LINE
  5
1EB
100
AcDbEntity
  8
Center Mark (ISO)
  6
CONTINUOUS
 62
  256
370
   -1
100
AcDbLine
 10
257.6263271855011
 20
73.97272612600088
 11
257.6263271855011
 21
61.47272612600088
  0
LINE
  5
1EC
100
AcDbEntity
  8
Center Mark (ISO)
  6
CONTINUOUS
 62
  256
370
   -1
100
AcDbLine
 10
263.8763271855024
 20
127.2227261260008
 11
251.3763271855011
 21
127.2227261260008
  0
LINE
  5
1ED
100
AcDbEntity
  8
Center Mark (ISO)
  6
CONTINUOUS
 62
  256
370
   -1
100
AcDbLine
 10
257.6263271855011
 20
133.4727261260008
 11
257.6263271855011
 21
120.9727261260008
  0
LINE
  5
1EE
100
AcDbEntity
  8
Center Mark (ISO)
  6
CONTINUOUS
 62
  256
370
   -1
100
AcDbLine
 10
263.8763271855024
 20
193.722726126001
 11
251.3763271855011
 21
193.722726126001
  0
LINE
  5
1EF
100
AcDbEntity
  8
Center Mark (ISO)
  6
CONTINUOUS
 62
  256
370
   -1
100
AcDbLine
 10
257.6263271855011
 20
199.972726126001
 11
257.6263271855011
 21
187.472726126001
  0
CIRCLE
  5
1F0
100
AcDbEntity
  8
PCB
  6
CONTINUOUS
 62
  256
370
   18
100
AcDbCircle
 10
127.7706779092852
 20
160.5975447623841
 40
1.25
  0
CIRCLE
  5
1F1
100
AcDbEntity
  8
PCB
  6
CONTINUOUS
 62
  256
370
   18
100
AcDbCircle
 10
63.77067790928521
 20
160.5975447623841
 40
1.25
  0
CIRCLE
  5
1F2
100
AcDbEntity
  8
PCB
  6
CONTINUOUS
 62
  256
370
   18
100
AcDbCircle
 10
63.77067790928521
 20
94.09754476238408
 40
1.25
  0
CIRCLE
  5
1F3
100
AcDbEntity
  8
PCB
  6
CONTINUOUS
 62
  256
370
   18
100
AcDbCircle
 10
127.7706779092852
 20
94.09754476238408
 40
1.25
  0
LWPOLYLINE
  5
1F4
100
AcDbEntity
  8
PCB
  6
ByLayer
 62
  256
370
   -1
100
AcDbPolyline
 90
   20
 70
    1
 43
0
 10
102.1396466512981
 20
149.6722497824319
 42
0.4142135452747019
 10
105.1396466512981
 20
152.6722496072992
 10
105.1396479896211
 20
175.5975442154464
 10
124.2706779092852
 20
175.5975447623841
 10
124.2706779092852
 20
170.5975447623841
 42
0.4142135623730961
 10
127.7706779092852
 20
167.0975447623841
 10
130.7706779092866
 20
167.0975447623841
 10
130.7706779092866
 20
84.13800000000215
 10
111.5693388375384
 20
84.13800000000215
 10
111.5693388375383
 20
100.3659603863245
 42
1
 10
79.97201698103984
 20
100.3659586515458
 10
79.97201698103984
 20
84.13800000000217
 10
60.7706779092852
 20
84.13800000000217
 10
60.77067790928521
 20
167.0975447623841
 10
63.77067790928521
 20
167.0975447623841
 42
0.414213562373094
 10
67.27067790928521
 20
170.5975447623841
 10
67.27067790928521
 20
175.5975447623841
 10
86.40170782894934
 20
175.5975447623841
 10
86.40170782894934
 20
152.6722497824319
 42
0.414213562373095
 10
89.40170782894934
 20
149.6722497824319
  0
ENDSEC
  0
SECTION
  2
OBJECTS
  0
DICTIONARY
  5
C
330
0
100
AcDbDictionary
281
    1
  3
ACAD_GROUP
350
D
  0
DICTIONARY
  5
D
330
C
100
AcDbDictionary
281
    1
  0
ENDSEC
  0
EOF
